<svg width="403" height="121" viewBox="0 0 403 121" fill="none" xmlns="http://www.w3.org/2000/svg">
<path d="M283.95 3.01649H310.711L312.089 4.98511L313.663 7.74117L317.008 13.2533L320.747 19.5528L327.438 30.5771L331.176 36.8766L334.521 42.3888L337.473 47.3103L340.818 52.8224L344.557 59.122L346.131 61.4843L349.673 54.0036L351.838 49.2789L354.986 42.3888L362.07 27.0336L365.022 20.5372L368.761 12.4658L372.303 4.78825L373.09 3.21336L373.287 3.01649H396.9V6.75686L396.506 27.821L395.916 56.9565L395.522 79.3987L394.932 108.14L394.735 116.409L382.732 116.605H378.796L377.812 116.409L377.616 116.015L375.845 80.9736L373.68 36.8766L373.287 31.9551L369.745 40.0264L366.99 46.326L364.432 52.2318L361.283 59.3188L358.725 65.2247L354.986 73.6897L352.428 79.5956L345.344 95.7382L341.999 103.416L341.015 105.384H340.031L338.457 102.235L335.112 94.557L331.373 86.092L327.831 78.0207L324.092 69.5556L320.55 61.4843L313.86 46.326L310.515 38.6484L307.563 31.9551L307.366 31.7582L304.415 51.4444L301.069 73.296L298.708 89.0449L294.379 117.393L293.985 118.574H292.608L291.821 118.18L288.476 69.3588L283.95 4.39452V3.01649Z" fill="white"/>
<path d="M2.55811 3.01649H28.9263V8.33175L28.7295 10.8909L34.6328 7.93803L39.1587 6.16628L43.4878 4.78825L48.4072 3.60708L52.7363 3.01649H60.8042L66.9043 3.80394L71.4302 4.98511L75.5625 6.75686L78.7109 8.72547L80.4819 10.1035L82.4497 11.8753L83.8271 13.2533L85.7949 16.0093L87.3691 18.9623L88.7466 22.7026L89.3369 25.065L89.5337 26.6399V32.3488L89.1401 34.908L88.1562 38.2547L86.7788 41.6013L85.0078 44.5542L83.4336 46.5228L81.0723 49.2789H80.6787V49.6726L79.1045 51.0507L76.1528 53.413L73.2012 55.3816L69.6592 57.3502L64.7397 59.7126L59.8203 61.4843L57.8525 62.0749H57.0654L59.23 65.6184L61.5913 69.3588L64.543 74.0834L66.9043 77.8238L69.856 82.5485L72.2173 86.2888L75.1689 91.0135L77.5303 94.7539L80.4819 99.4785L82.8433 103.219L85.7949 107.944L88.1562 111.684L91.1079 116.409L92.2886 118.18V118.574L90.5176 118.377L88.353 116.605L85.4014 113.849L83.2368 112.078L81.6626 110.503L79.498 108.731L76.5464 105.975L74.3818 104.203L72.8076 102.628L70.6431 100.857L69.2656 99.4785L67.6914 98.1005L64.9365 95.7382L61.9849 92.9821L60.4106 91.6041L58.4429 89.8323L56.8687 88.4543L54.9009 86.6826L52.146 84.3202L49.5879 81.9579L48.0137 80.5799L44.0781 77.0364L42.5039 75.6583L40.5361 73.8866L38.3716 72.1148L36.9941 70.7368L35.4199 69.3588L33.4521 67.587L31.8779 66.209L30.6973 65.2247L30.5005 64.831V63.2561L30.894 62.8623L35.4199 61.6812L40.1426 59.9094L43.4878 58.3345L47.0298 56.1691L50.7686 53.413L53.7202 50.8538L56.6719 47.9009L58.4429 45.7354L60.8042 42.3888L62.772 39.0421L64.3462 35.3018L65.3301 31.5614L65.5269 30.1834V25.8524L64.9365 23.4901L63.5591 20.734L62.1816 18.9623L59.6235 17.1905L56.8687 16.0093L52.5396 15.2219H45.2588L39.3555 15.8125L32.4683 16.9936L29.123 17.7811H28.5327V25.2618L28.1392 41.4045L27.9424 53.2161L27.5488 70.5399L26.9585 97.3131L26.7617 104.203L26.5649 116.212L26.3682 116.409L14.3647 116.605H8.46143L7.87109 116.409L7.67432 115.424L4.3291 45.1448L2.55811 7.54431V3.01649Z" fill="white"/>
<path d="M228.458 16.0093L229.442 16.2062L230.623 18.5685L233.575 25.6555L234.165 26.2461L238.101 27.0336L239.084 26.6399L241.052 24.4744L242.823 22.3089L244.594 20.3403L245.578 19.1591L246.365 18.9623L254.63 23.0963L255.417 23.8838L255.22 25.6555L253.843 33.3331V34.7112L254.63 35.6955L256.204 37.0735L256.794 37.4672L258.762 37.0735L266.043 34.908L267.027 34.7112L267.814 35.1049L269.782 38.0578L272.143 41.995L272.93 43.3731L272.733 44.3574L270.569 46.7197L267.617 49.8695L266.043 51.8381L265.846 52.6255L266.633 55.5785L267.224 56.169L270.962 57.3502L276.472 58.9251L277.259 59.3188L277.456 59.7126V68.965L277.062 70.1462L275.488 70.7368L267.224 72.9023L266.437 73.6897L265.649 76.4458L265.846 77.6269L267.617 79.7924L269.782 82.1547L271.553 84.3202L272.34 85.3045V86.4857L269.388 91.0135L267.42 93.9664L266.83 94.557L264.862 94.1633L257.188 91.6041H256.204L253.646 93.7696L253.056 94.3601V96.1319L254.236 104.006V105.384L253.056 106.369L247.546 108.928L245.775 109.715H244.594L242.823 107.747L240.659 104.991L238.297 102.038L237.707 101.644L235.936 101.841L233.378 102.235L232.394 102.825L229.836 108.337L228.065 112.078L227.671 112.471L225.113 112.275L219.407 111.487L218.029 111.093L217.636 110.503L216.455 100.66L216.258 100.069L215.078 99.6754L211.536 98.1005L210.158 98.2974L204.452 102.038L202.287 103.416L201.5 103.613L199.729 102.431L196.777 99.8723L194.416 97.5099L194.613 96.1319L198.352 88.6512L198.745 87.47L197.761 85.5014L195.793 82.5485L195.4 82.1547L184.774 81.9579L184.184 81.3673L182.216 74.4772L181.822 72.9023L182.609 71.918L185.561 70.1462L189.89 67.587L190.874 66.9964L191.071 66.6027L191.268 63.0592V60.6969L190.48 59.7126L186.742 57.3502L182.806 54.791L182.413 54.3973V53.0193L184.774 45.7354L185.364 44.948H196.187L197.368 43.5699L199.335 40.617L199.532 40.0264L198.548 37.4672L196.187 32.5457L195.203 30.1834L196.777 28.6085L198.942 26.8367L201.894 24.4744L203.271 23.8838L206.813 26.2461L210.749 29.0022L212.126 29.7896L213.897 29.3959L217.045 28.0179L217.439 27.6242L218.816 17.978L219.21 17.1905L220.784 16.7968L225.9 16.2062L228.458 16.0093ZM227.475 36.0892L224.129 36.4829L219.604 37.6641L216.062 39.239L212.913 41.2076L210.945 42.7825L208.978 44.5542L207.01 46.7197L205.042 49.6726L203.074 53.413L201.894 56.9565L201.106 60.8937V67.587L201.894 71.7211L203.271 75.6583L205.239 79.3987L207.6 82.5485L209.568 84.7139L211.732 86.4857L213.897 88.0606L217.045 89.8323L219.997 91.0135L222.555 91.8009L226.097 92.3915H232.197L236.526 91.6041L240.462 90.2261L244.201 88.2574L246.365 86.6826L249.12 84.3202L251.285 81.9579L253.056 79.3987L254.827 76.2489L256.007 73.296L256.991 69.3588L257.385 66.209V62.4686L256.794 58.3345L255.811 54.791L254.236 51.2475L252.465 48.2946L250.301 45.5385L247.546 42.7825L244.594 40.617L241.446 38.8453L237.51 37.2704L232.984 36.2861L230.623 36.0892H227.475Z" fill="white"/>
<path d="M135.776 16.4031H141.876L143.844 16.5999L143.451 21.3246L143.254 21.9152L147.386 22.5058L150.928 23.4901L154.667 24.8681L155.454 25.2618L155.651 24.2775L157.225 20.5371L157.619 20.3403L160.767 21.9152L162.932 23.0963L165.293 24.6712L167.064 26.0493L166.67 26.8367L164.309 29.9865V30.5771L166.474 32.5457L168.048 33.9237L170.606 36.6798L172.18 38.6484V39.0421L173.164 38.4515L176.312 36.0892H176.903L179.067 39.4358L181.625 44.3574L182.216 46.326L177.887 48.0977H177.493L178.28 50.6569L179.461 55.1847L179.854 57.3502L180.051 59.9094L185.167 59.5157V69.1619L180.838 68.7682L180.051 68.5713L179.854 71.3274L178.871 76.052L177.69 79.5955L177.493 80.5799L179.461 81.1704L182.216 82.3516L181.625 84.1234L180.051 87.2731L178.477 90.2261L176.903 92.3915L176.509 92.5884L172.377 89.6355L169.819 92.7853L165.49 97.1162L164.112 98.1005L164.506 98.888L166.474 101.447L167.064 102.235L166.67 103.022L163.128 105.384L159.586 107.353L157.422 108.337L156.241 105.778L155.454 103.809V103.416L151.519 104.991L146.993 106.172L143.451 106.762L143.844 112.078L140.696 112.275H136.76L132.825 112.078L132.038 111.684L132.628 107.55V106.762L127.708 105.778L123.773 104.597L121.805 103.809L121.215 105.581L120.034 108.337L119.641 108.534L116.492 106.959L113.344 105.188L110.195 103.022L108.818 102.038L109.015 101.053L111.179 98.4942L111.573 98.1005V97.5099L109.408 95.7382L107.244 93.5727L105.473 91.4072L104.489 90.0292L103.111 90.8166L100.553 92.7853L99.9629 92.5884L97.6016 88.848L95.2402 84.3202L94.4531 82.5485V81.9579L98.979 80.1861L97.6016 76.052L96.4209 70.3431L96.2241 69.3588L92.8789 69.7525H91.5015V58.9251L91.895 58.7282L96.4209 59.3188L96.6177 57.1534L97.6016 52.6255L98.7822 49.082V48.2946L94.6499 46.7197L94.4531 46.1291L97.208 40.4201L98.7822 37.8609L100.16 35.8923L101.144 36.2861L104.095 38.4515L104.882 38.0578L106.26 36.2861L109.015 33.3331L111.573 30.9708L111.179 30.1834L109.015 27.6242L108.818 26.6398L112.36 24.0807L116.295 21.7183L119.444 20.1434L120.034 20.3403L121.805 24.2775V24.8681L125.347 23.4901L130.07 22.3089L132.825 21.9152L132.234 18.1748V16.7968L132.431 16.5999L135.776 16.4031ZM134.202 29.0022L129.283 29.9865L124.757 31.5614L121.608 33.1363L119.05 34.7112L115.902 37.0735L111.573 41.4044L109.605 44.1605L107.44 47.704L105.866 51.0507L104.686 54.5942L103.898 57.9408L103.505 60.8937V67.7839L104.095 71.7211L105.276 75.8552L106.457 79.005L108.424 82.7453L110.589 85.8951L112.36 88.0606L115.902 91.6041L119.05 93.9664L123.183 96.3288L125.938 97.5099L129.479 98.6911L133.415 99.4785L134.989 99.6754H141.876L146.402 98.888L150.141 97.7068L153.093 96.5256L156.438 94.7539L158.799 93.179L162.145 90.4229L164.506 88.0606L166.08 86.092L168.441 82.5485L170.409 78.8081L171.787 75.0677L172.771 71.1305L173.164 68.5713V60.1063L172.377 55.7753L171.196 51.8381L169.622 48.2946L167.851 45.1448L165.49 41.7982L162.735 38.8453L160.177 36.4829L157.422 34.5143L154.077 32.5457L150.338 30.9708L147.386 29.9865L142.467 29.0022H134.202Z" fill="white"/>
<path d="M134.989 35.8923H141.876L145.812 36.6798L149.354 37.8609L153.486 40.0264L156.241 41.995L158.603 44.1605L160.374 45.9323L162.735 49.2789L164.506 52.6255L165.687 55.7753L166.67 60.1063V61.6812L166.08 62.2718L165.096 62.0749L163.522 55.7753L162.341 52.8224L160.57 49.6726L158.799 47.3103L156.635 44.948L154.273 42.9793L151.519 41.2076L148.173 39.6327L145.222 38.6484L142.27 38.0578L141.089 37.8609H135.58L131.447 38.6484L128.496 39.6327L125.347 41.2076L123.379 42.3888L120.821 44.3574L118.066 47.1134L115.902 50.0663L113.737 54.2004L112.753 56.9565L113.737 55.9722L115.508 54.0036L117.083 52.035L118.066 50.8538L119.444 51.0507L119.641 51.8381L118.066 54.0036L116.689 55.5785L114.918 57.7439L112.753 60.3031L111.376 61.878L110.786 62.0749L109.999 61.6812L109.015 55.5785L108.228 49.6726L108.424 48.4915L109.408 48.0977L109.999 48.6883L110.786 53.8067L110.982 55.5785L112.753 51.6412L114.524 48.4915L116.492 45.9323L118.854 43.3731L121.805 41.0107L125.347 38.8453L128.496 37.4672L131.644 36.4829L134.989 35.8923Z" fill="white"/>
<path d="M165.49 66.4059L166.474 66.6027L166.867 67.1933L168.245 75.8552L168.638 79.3987L168.245 80.1861H167.261L166.67 78.8081L165.687 72.7054L164.506 75.8552L162.538 79.5956L160.767 81.9579L158.406 84.714L155.651 87.0763L152.699 89.0449L148.567 91.0135L145.418 91.9978L142.27 92.5884L140.499 92.7853H135.973L131.841 92.1947L128.496 91.2104L123.97 89.0449L120.821 86.8794L117.87 84.3202L115.508 81.5642L113.737 78.8081L112.163 75.8552L110.982 72.7054L109.999 68.5713L110.392 67.587L111.376 67.3902L111.966 68.1776L112.95 72.1148L114.131 75.2646L115.902 78.6113L117.673 80.9736L119.837 83.3359L122.002 85.3045L124.954 87.2732L129.086 89.2418L132.431 90.2261L136.367 90.8167H140.499L144.238 90.2261L147.386 89.2418L149.748 88.2575L152.699 86.6826L155.061 84.9108L157.028 83.1391L158.603 81.5642L160.767 78.6113L162.341 75.8552L163.719 72.3117L163.916 71.5242L162.932 72.5086L161.357 74.4772L159.586 76.6426L158.799 77.6269L158.012 77.8238L157.225 77.0364L157.422 76.2489L159.586 73.4929L161.751 70.9337L163.916 68.1776L165.49 66.4059Z" fill="white"/>
<path d="M137.744 45.3417H138.138L140.696 51.2475V51.6412L138.728 51.2475L138.531 51.6412V64.8309H148.37L147.977 63.8466L148.173 63.0592L151.125 64.4372L152.699 65.0278V65.4215L149.354 66.7996L148.567 67.1933H147.977L148.37 65.6184H137.547L137.351 64.8309L137.154 51.2475L135.186 51.6412L135.776 49.8695L137.744 45.3417Z" fill="white"/>
<path d="M227.868 49.4758H234.362L234.952 50.2632L235.149 51.0507V53.2161L235.542 53.0193L235.739 50.4601L236.526 49.4758H243.02L243.217 49.8695V56.7596L242.233 57.3502H237.117L236.133 56.7596L235.739 56.1691L235.542 54.0036L235.149 53.8067V55.5785L234.755 56.5628L234.362 57.1534H228.065L227.278 56.3659L227.081 55.7753V50.6569L227.868 49.4758Z" fill="white"/>
<path d="M228.262 66.4059H233.968L235.149 67.587V73.0991L234.362 74.2803L233.181 74.4772H228.458L227.278 73.4929L227.081 73.0991V67.7839L227.868 66.6027L228.262 66.4059Z" fill="white"/>
<path d="M228.262 57.7439H232L234.165 57.9408L235.149 59.122V64.0435L234.559 65.4215L233.968 65.8153H228.262L227.278 64.8309L227.081 64.4372V59.122L227.671 58.1377L228.262 57.7439Z" fill="white"/>
<path d="M219.8 66.4059H224.326L225.704 66.6027L226.491 67.587V73.296L225.704 74.2803L224.72 74.4772H219.8L218.62 73.4929V67.3902L219.8 66.4059Z" fill="white"/>
<path d="M219.997 57.7439H223.736L225.507 57.9408L226.294 58.5314L226.491 59.122V64.6341L226.294 65.0278H225.9L225.507 65.8153H219.604L218.62 64.8309V58.7282L219.407 57.9408L219.997 57.7439Z" fill="white"/>
<path d="M228.065 75.0677H234.165L234.952 75.8552L235.149 76.4458V81.3673L234.755 82.3516L234.559 82.5485H227.671L227.081 81.761V76.4458L227.671 75.4615L228.065 75.0677Z" fill="white"/>
<path d="M236.92 66.4059H242.233L243.217 66.9964V73.8866L242.823 74.2803L242.036 74.4772H236.92L235.739 73.296V67.587L236.526 66.6027L236.92 66.4059Z" fill="white"/>
<path d="M219.604 75.0677H225.507L226.491 76.2489V81.761L225.9 82.5485H219.013L218.62 81.9579V76.0521L219.604 75.0677Z" fill="white"/>
<path d="M221.178 49.4758H223.539L224.917 50.2632L225.704 51.2475L226.097 52.035V54.3973L225.31 55.7753L223.736 56.9565L221.965 57.1534L220.194 56.5628L219.013 55.1847L218.62 54.3973V52.2318L219.407 50.6569L220.587 49.6726L221.178 49.4758Z" fill="white"/>
</svg>
