<svg width="382" height="408" viewBox="0 0 382 408" fill="none" xmlns="http://www.w3.org/2000/svg">
<path d="M375.944 77.2591H289.681C289.681 77.2591 298.237 53.9019 311.396 53.9019C324.555 53.9019 328.688 70.0299 328.688 70.0299C328.688 70.0299 337.569 61.2665 344.861 61.2665C352.154 61.2665 358.498 72.8458 358.498 72.8458C358.498 72.8458 368.796 66.6184 375.944 77.2591Z" fill="#EBEBEB"/>
<path d="M300.62 27.9726H260.313C260.313 27.9726 269.339 14.9222 276.414 14.9222C283.49 14.9222 285.611 23.6224 285.611 23.6224C285.611 23.6224 290.62 19.5611 295.259 20.2831C299.898 21.0051 300.62 27.9726 300.62 27.9726Z" fill="#EBEBEB"/>
<path d="M84.575 75.7068H6.05594C6.05594 75.7068 16.814 51.6817 28.312 50.2016C39.8101 48.7215 45.3155 68.0354 45.3155 68.0354C45.3155 68.0354 52.7342 61.2033 58.5735 61.2033C64.4128 61.2033 68.9073 70.2285 68.9073 70.2285C68.9073 70.2285 80.5769 64.0372 84.575 75.7068Z" fill="#EBEBEB"/>
<path d="M166.018 17.6478H112.986C112.986 17.6478 122.093 0.256232 131.939 0.00352687C141.786 -0.249178 147.02 13.1622 147.02 13.1622C147.02 13.1622 162.435 0.824819 166.018 17.6478Z" fill="#EBEBEB"/>
<path d="M76.6959 138.865H23.6549C23.6549 138.865 32.7613 121.473 42.6078 121.221C52.4543 120.968 57.6889 134.379 57.6889 134.379C57.6889 134.379 73.1039 122.078 76.6959 138.865Z" fill="#EBEBEB"/>
<path d="M195.585 62.3314H159.782C159.782 62.3314 165.937 50.5987 172.607 50.4182C179.276 50.2377 182.787 59.299 182.787 59.299C182.787 59.299 193.166 50.9687 195.585 62.3314Z" fill="#EBEBEB"/>
<path d="M140.053 112.376H104.25C104.25 112.376 110.396 100.643 117.066 100.463C123.735 100.282 127.246 109.353 127.246 109.353C127.246 109.353 137.625 101.022 140.053 112.376Z" fill="#EBEBEB"/>
<path d="M181.659 104.93H172.372V115.896H181.659V104.93Z" fill="#DBDBDB"/>
<path d="M187.543 104.93H181.659V116.302H187.543V104.93Z" fill="#C7C7C7"/>
<path d="M187.931 109.777H182.092V116.302H187.931V109.777Z" fill="#DBDBDB"/>
<path d="M191.578 109.777H187.931V116.302H191.578V109.777Z" fill="#C7C7C7"/>
<path d="M183.825 115.192H168.807V169.767H183.825V115.192Z" fill="#EBEBEB"/>
<path d="M175.242 117.53H170.522V119.461H175.242V117.53Z" fill="#DAEAEB"/>
<path d="M181.28 117.53H176.56V119.461H181.28V117.53Z" fill="#DAEAEB"/>
<path d="M175.242 120.806H170.522V122.737H175.242V120.806Z" fill="#DAEAEB"/>
<path d="M181.28 120.806H176.56V122.737H181.28V120.806Z" fill="#DAEAEB"/>
<path d="M175.242 124.082H170.522V126.013H175.242V124.082Z" fill="#DAEAEB"/>
<path d="M181.28 124.082H176.56V126.013H181.28V124.082Z" fill="#DAEAEB"/>
<path d="M175.242 127.358H170.522V129.289H175.242V127.358Z" fill="#DAEAEB"/>
<path d="M181.28 127.358H176.56V129.289H181.28V127.358Z" fill="#DAEAEB"/>
<path d="M175.242 130.634H170.522V132.565H175.242V130.634Z" fill="#DAEAEB"/>
<path d="M181.28 130.634H176.56V132.565H181.28V130.634Z" fill="#DAEAEB"/>
<path d="M175.242 133.91H170.522V135.842H175.242V133.91Z" fill="#DAEAEB"/>
<path d="M181.28 133.91H176.56V135.842H181.28V133.91Z" fill="#DAEAEB"/>
<path d="M175.242 137.186H170.522V139.118H175.242V137.186Z" fill="#DAEAEB"/>
<path d="M181.28 137.186H176.56V139.118H181.28V137.186Z" fill="#DAEAEB"/>
<path d="M175.242 140.462H170.522V142.394H175.242V140.462Z" fill="#DAEAEB"/>
<path d="M181.28 140.462H176.56V142.394H181.28V140.462Z" fill="#DAEAEB"/>
<path d="M175.242 143.739H170.522V145.67H175.242V143.739Z" fill="#DAEAEB"/>
<path d="M181.28 143.739H176.56V145.67H181.28V143.739Z" fill="#DAEAEB"/>
<path d="M175.242 147.015H170.522V148.946H175.242V147.015Z" fill="#DAEAEB"/>
<path d="M181.28 147.015H176.56V148.946H181.28V147.015Z" fill="#DAEAEB"/>
<path d="M175.242 150.291H170.522V152.222H175.242V150.291Z" fill="#DAEAEB"/>
<path d="M181.28 150.291H176.56V152.222H181.28V150.291Z" fill="#DAEAEB"/>
<path d="M175.242 153.567H170.522V155.498H175.242V153.567Z" fill="#DAEAEB"/>
<path d="M181.28 153.567H176.56V155.498H181.28V153.567Z" fill="#DAEAEB"/>
<path d="M175.242 156.843H170.522V158.775H175.242V156.843Z" fill="#DAEAEB"/>
<path d="M181.28 156.843H176.56V158.775H181.28V156.843Z" fill="#DAEAEB"/>
<path d="M175.242 160.119H170.522V162.051H175.242V160.119Z" fill="#DAEAEB"/>
<path d="M181.28 160.119H176.56V162.051H181.28V160.119Z" fill="#DAEAEB"/>
<path d="M195.991 115.192H183.825V169.767H195.991V115.192Z" fill="#C7C7C7"/>
<path d="M190.892 162.042H194.772V160.11H190.892V162.042Z" fill="#EBEBEB"/>
<path d="M185.928 162.042H189.809V160.11H185.928V162.042Z" fill="#EBEBEB"/>
<path d="M190.892 158.766H194.772V156.834H190.892V158.766Z" fill="#EBEBEB"/>
<path d="M185.928 158.766H189.809V156.834H185.928V158.766Z" fill="#EBEBEB"/>
<path d="M190.892 155.489H194.772V153.558H190.892V155.489Z" fill="#EBEBEB"/>
<path d="M185.928 155.489H189.809V153.558H185.928V155.489Z" fill="#EBEBEB"/>
<path d="M190.892 152.213H194.772V150.282H190.892V152.213Z" fill="#EBEBEB"/>
<path d="M185.928 152.213H189.809V150.282H185.928V152.213Z" fill="#EBEBEB"/>
<path d="M190.892 148.946H194.772V147.015H190.892V148.946Z" fill="#EBEBEB"/>
<path d="M185.928 148.946H189.809V147.015H185.928V148.946Z" fill="#EBEBEB"/>
<path d="M190.892 145.67H194.772V143.739H190.892V145.67Z" fill="#EBEBEB"/>
<path d="M185.928 145.67H189.809V143.739H185.928V145.67Z" fill="#EBEBEB"/>
<path d="M190.892 142.394H194.772V140.463H190.892V142.394Z" fill="#EBEBEB"/>
<path d="M185.928 142.394H189.809V140.463H185.928V142.394Z" fill="#EBEBEB"/>
<path d="M190.892 139.118H194.772V137.186H190.892V139.118Z" fill="#EBEBEB"/>
<path d="M185.928 139.118H189.809V137.186H185.928V139.118Z" fill="#EBEBEB"/>
<path d="M190.892 135.842H194.772V133.91H190.892V135.842Z" fill="#EBEBEB"/>
<path d="M185.928 135.842H189.809V133.91H185.928V135.842Z" fill="#EBEBEB"/>
<path d="M190.892 132.565H194.772V130.634H190.892V132.565Z" fill="#EBEBEB"/>
<path d="M185.928 132.565H189.809V130.634H185.928V132.565Z" fill="#EBEBEB"/>
<path d="M190.892 129.289H194.772V127.358H190.892V129.289Z" fill="#EBEBEB"/>
<path d="M185.928 129.289H189.809V127.358H185.928V129.289Z" fill="#EBEBEB"/>
<path d="M190.892 126.013H194.772V124.082H190.892V126.013Z" fill="#EBEBEB"/>
<path d="M185.928 126.013H189.809V124.082H185.928V126.013Z" fill="#EBEBEB"/>
<path d="M190.892 122.746H194.772V120.815H190.892V122.746Z" fill="#EBEBEB"/>
<path d="M185.928 122.746H189.809V120.815H185.928V122.746Z" fill="#EBEBEB"/>
<path d="M190.892 119.47H194.772V117.539H190.892V119.47Z" fill="#EBEBEB"/>
<path d="M185.928 119.47H189.809V117.539H185.928V119.47Z" fill="#EBEBEB"/>
<path d="M292.046 92.3853H277.29V169.758H292.046V92.3853Z" fill="#DBDBDB"/>
<path d="M282.452 94.9034H279.582V97.8546H282.452V94.9034Z" fill="#EBEBEB"/>
<path d="M286.116 94.9034H283.246V97.8546H286.116V94.9034Z" fill="#EBEBEB"/>
<path d="M282.452 99.9123H279.582V102.864H282.452V99.9123Z" fill="#EBEBEB"/>
<path d="M286.116 99.9123H283.246V102.864H286.116V99.9123Z" fill="#EBEBEB"/>
<path d="M282.452 104.93H279.582V107.882H282.452V104.93Z" fill="#EBEBEB"/>
<path d="M286.116 104.93H283.246V107.882H286.116V104.93Z" fill="#EBEBEB"/>
<path d="M282.452 109.948H279.582V112.9H282.452V109.948Z" fill="#EBEBEB"/>
<path d="M286.116 109.948H283.246V112.9H286.116V109.948Z" fill="#EBEBEB"/>
<path d="M282.452 114.966H279.582V117.918H282.452V114.966Z" fill="#EBEBEB"/>
<path d="M286.116 114.966H283.246V117.918H286.116V114.966Z" fill="#EBEBEB"/>
<path d="M282.452 119.975H279.582V122.927H282.452V119.975Z" fill="#EBEBEB"/>
<path d="M286.116 119.975H283.246V122.927H286.116V119.975Z" fill="#EBEBEB"/>
<path d="M282.452 124.993H279.582V127.945H282.452V124.993Z" fill="#EBEBEB"/>
<path d="M286.116 124.993H283.246V127.945H286.116V124.993Z" fill="#EBEBEB"/>
<path d="M282.452 130.011H279.582V132.963H282.452V130.011Z" fill="#EBEBEB"/>
<path d="M286.116 130.011H283.246V132.963H286.116V130.011Z" fill="#EBEBEB"/>
<path d="M282.452 135.029H279.582V137.981H282.452V135.029Z" fill="#EBEBEB"/>
<path d="M286.116 135.029H283.246V137.981H286.116V135.029Z" fill="#EBEBEB"/>
<path d="M282.452 140.038H279.582V142.99H282.452V140.038Z" fill="#EBEBEB"/>
<path d="M286.116 140.038H283.246V142.99H286.116V140.038Z" fill="#EBEBEB"/>
<path d="M282.452 145.056H279.582V148.008H282.452V145.056Z" fill="#EBEBEB"/>
<path d="M286.116 145.056H283.246V148.008H286.116V145.056Z" fill="#EBEBEB"/>
<path d="M282.452 150.074H279.582V153.026H282.452V150.074Z" fill="#EBEBEB"/>
<path d="M286.116 150.074H283.246V153.026H286.116V150.074Z" fill="#EBEBEB"/>
<path d="M282.452 155.092H279.582V158.044H282.452V155.092Z" fill="#EBEBEB"/>
<path d="M286.116 155.092H283.246V158.044H286.116V155.092Z" fill="#EBEBEB"/>
<path d="M282.452 160.101H279.582V163.053H282.452V160.101Z" fill="#EBEBEB"/>
<path d="M286.892 163.062H289.762V160.11H286.892V163.062Z" fill="#EBEBEB"/>
<path d="M286.892 158.044H289.762V155.092H286.892V158.044Z" fill="#EBEBEB"/>
<path d="M286.892 153.026H289.762V150.074H286.892V153.026Z" fill="#EBEBEB"/>
<path d="M286.892 148.017H289.762V145.065H286.892V148.017Z" fill="#EBEBEB"/>
<path d="M286.892 142.999H289.762V140.047H286.892V142.999Z" fill="#EBEBEB"/>
<path d="M286.892 137.981H289.762V135.029H286.892V137.981Z" fill="#EBEBEB"/>
<path d="M286.892 132.963H289.762V130.011H286.892V132.963Z" fill="#EBEBEB"/>
<path d="M286.892 127.954H289.762V125.002H286.892V127.954Z" fill="#EBEBEB"/>
<path d="M286.892 122.936H289.762V119.984H286.892V122.936Z" fill="#EBEBEB"/>
<path d="M286.892 117.918H289.762V114.966H286.892V117.918Z" fill="#EBEBEB"/>
<path d="M286.892 112.9H289.762V109.948H286.892V112.9Z" fill="#EBEBEB"/>
<path d="M286.892 107.891H289.762V104.939H286.892V107.891Z" fill="#EBEBEB"/>
<path d="M286.892 102.873H289.762V99.9214H286.892V102.873Z" fill="#EBEBEB"/>
<path d="M286.892 97.8456H289.762V94.8943H286.892V97.8456Z" fill="#EBEBEB"/>
<path d="M286.116 160.101H283.246V163.053H286.116V160.101Z" fill="#EBEBEB"/>
<path d="M303.679 92.3853H292.046V169.758H303.679V92.3853Z" fill="#A6A6A6"/>
<path d="M300.114 163.062H302.488V160.11H300.114V163.062Z" fill="#C7C7C7"/>
<path d="M297.082 163.062H299.455V160.11H297.082V163.062Z" fill="#C7C7C7"/>
<path d="M300.114 158.044H302.488V155.092H300.114V158.044Z" fill="#C7C7C7"/>
<path d="M297.082 158.044H299.455V155.092H297.082V158.044Z" fill="#C7C7C7"/>
<path d="M300.114 153.026H302.488V150.074H300.114V153.026Z" fill="#C7C7C7"/>
<path d="M297.082 153.026H299.455V150.074H297.082V153.026Z" fill="#C7C7C7"/>
<path d="M300.114 148.017H302.488V145.065H300.114V148.017Z" fill="#C7C7C7"/>
<path d="M297.082 148.017H299.455V145.065H297.082V148.017Z" fill="#C7C7C7"/>
<path d="M300.114 142.999H302.488V140.047H300.114V142.999Z" fill="#C7C7C7"/>
<path d="M297.082 142.999H299.455V140.047H297.082V142.999Z" fill="#C7C7C7"/>
<path d="M300.114 137.981H302.488V135.029H300.114V137.981Z" fill="#C7C7C7"/>
<path d="M297.082 137.981H299.455V135.029H297.082V137.981Z" fill="#C7C7C7"/>
<path d="M300.114 132.963H302.488V130.011H300.114V132.963Z" fill="#C7C7C7"/>
<path d="M297.082 132.963H299.455V130.011H297.082V132.963Z" fill="#C7C7C7"/>
<path d="M300.114 127.954H302.488V125.002H300.114V127.954Z" fill="#C7C7C7"/>
<path d="M297.082 127.954H299.455V125.002H297.082V127.954Z" fill="#C7C7C7"/>
<path d="M300.114 122.936H302.488V119.984H300.114V122.936Z" fill="#C7C7C7"/>
<path d="M297.082 122.936H299.455V119.984H297.082V122.936Z" fill="#C7C7C7"/>
<path d="M300.114 117.918H302.488V114.966H300.114V117.918Z" fill="#C7C7C7"/>
<path d="M297.082 117.918H299.455V114.966H297.082V117.918Z" fill="#C7C7C7"/>
<path d="M300.114 112.9H302.488V109.948H300.114V112.9Z" fill="#C7C7C7"/>
<path d="M297.082 112.9H299.455V109.948H297.082V112.9Z" fill="#C7C7C7"/>
<path d="M300.114 107.891H302.488V104.939H300.114V107.891Z" fill="#C7C7C7"/>
<path d="M297.082 107.891H299.455V104.939H297.082V107.891Z" fill="#C7C7C7"/>
<path d="M300.114 102.873H302.488V99.9214H300.114V102.873Z" fill="#C7C7C7"/>
<path d="M297.082 102.873H299.455V99.9214H297.082V102.873Z" fill="#C7C7C7"/>
<path d="M300.114 97.8456H302.488V94.8943H300.114V97.8456Z" fill="#C7C7C7"/>
<path d="M296.45 94.9034H294.076V97.8546H296.45V94.9034Z" fill="#C7C7C7"/>
<path d="M296.45 99.9123H294.076V102.864H296.45V99.9123Z" fill="#C7C7C7"/>
<path d="M296.45 104.93H294.076V107.882H296.45V104.93Z" fill="#C7C7C7"/>
<path d="M296.45 109.948H294.076V112.9H296.45V109.948Z" fill="#C7C7C7"/>
<path d="M296.45 114.966H294.076V117.918H296.45V114.966Z" fill="#C7C7C7"/>
<path d="M296.45 119.975H294.076V122.927H296.45V119.975Z" fill="#C7C7C7"/>
<path d="M296.45 124.993H294.076V127.945H296.45V124.993Z" fill="#C7C7C7"/>
<path d="M296.45 130.011H294.076V132.963H296.45V130.011Z" fill="#C7C7C7"/>
<path d="M296.45 135.029H294.076V137.981H296.45V135.029Z" fill="#C7C7C7"/>
<path d="M296.45 140.038H294.076V142.99H296.45V140.038Z" fill="#C7C7C7"/>
<path d="M296.45 145.056H294.076V148.008H296.45V145.056Z" fill="#C7C7C7"/>
<path d="M296.45 150.074H294.076V153.026H296.45V150.074Z" fill="#C7C7C7"/>
<path d="M296.45 155.092H294.076V158.044H296.45V155.092Z" fill="#C7C7C7"/>
<path d="M296.45 160.101H294.076V163.053H296.45V160.101Z" fill="#C7C7C7"/>
<path d="M297.082 97.8456H299.455V94.8943H297.082V97.8456Z" fill="#C7C7C7"/>
<path d="M208.617 88.2157H191.153V169.758H208.617V88.2157Z" fill="#EBEBEB"/>
<path d="M208.608 86.4287H190.729V88.2157H208.608V86.4287Z" fill="#C7C7C7"/>
<path d="M194.502 90.842H192.733V169.758H194.502V90.842Z" fill="#DAEAEB"/>
<path d="M197.633 90.842H195.864V169.758H197.633V90.842Z" fill="#DAEAEB"/>
<path d="M200.765 90.842H198.996V169.758H200.765V90.842Z" fill="#DAEAEB"/>
<path d="M203.897 90.842H202.128V169.758H203.897V90.842Z" fill="#DAEAEB"/>
<path d="M207.029 90.842H205.26V169.758H207.029V90.842Z" fill="#DAEAEB"/>
<path d="M194.502 93.0983H192.733V96.6182H194.502V93.0983Z" fill="#EBEBEB"/>
<path d="M197.633 93.0983H195.864V96.6182H197.633V93.0983Z" fill="#EBEBEB"/>
<path d="M200.765 93.0983H198.996V96.6182H200.765V93.0983Z" fill="#EBEBEB"/>
<path d="M203.897 93.0983H202.128V96.6182H203.897V93.0983Z" fill="#EBEBEB"/>
<path d="M207.029 93.0983H205.26V96.6182H207.029V93.0983Z" fill="#EBEBEB"/>
<path d="M194.502 98.8293H192.733V102.358H194.502V98.8293Z" fill="#EBEBEB"/>
<path d="M197.633 98.8293H195.864V102.358H197.633V98.8293Z" fill="#EBEBEB"/>
<path d="M200.765 98.8293H198.996V102.358H200.765V98.8293Z" fill="#EBEBEB"/>
<path d="M203.897 98.8293H202.128V102.358H203.897V98.8293Z" fill="#EBEBEB"/>
<path d="M207.029 98.8293H205.26V102.358H207.029V98.8293Z" fill="#EBEBEB"/>
<path d="M194.502 104.56H192.733V108.08H194.502V104.56Z" fill="#EBEBEB"/>
<path d="M197.633 104.56H195.864V108.08H197.633V104.56Z" fill="#EBEBEB"/>
<path d="M200.765 104.56H198.996V108.08H200.765V104.56Z" fill="#EBEBEB"/>
<path d="M203.897 104.56H202.128V108.08H203.897V104.56Z" fill="#EBEBEB"/>
<path d="M207.029 104.56H205.26V108.08H207.029V104.56Z" fill="#EBEBEB"/>
<path d="M194.502 110.282H192.733V113.811H194.502V110.282Z" fill="#EBEBEB"/>
<path d="M197.633 110.282H195.864V113.811H197.633V110.282Z" fill="#EBEBEB"/>
<path d="M200.765 110.282H198.996V113.811H200.765V110.282Z" fill="#EBEBEB"/>
<path d="M203.897 110.282H202.128V113.811H203.897V110.282Z" fill="#EBEBEB"/>
<path d="M207.029 110.282H205.26V113.811H207.029V110.282Z" fill="#EBEBEB"/>
<path d="M194.502 116.013H192.733V119.533H194.502V116.013Z" fill="#EBEBEB"/>
<path d="M197.633 116.013H195.864V119.533H197.633V116.013Z" fill="#EBEBEB"/>
<path d="M200.765 116.013H198.996V119.533H200.765V116.013Z" fill="#EBEBEB"/>
<path d="M203.897 116.013H202.128V119.533H203.897V116.013Z" fill="#EBEBEB"/>
<path d="M207.029 116.013H205.26V119.533H207.029V116.013Z" fill="#EBEBEB"/>
<path d="M194.502 121.744H192.733V125.273H194.502V121.744Z" fill="#EBEBEB"/>
<path d="M197.633 121.744H195.864V125.273H197.633V121.744Z" fill="#EBEBEB"/>
<path d="M200.765 121.744H198.996V125.273H200.765V121.744Z" fill="#EBEBEB"/>
<path d="M203.897 121.744H202.128V125.273H203.897V121.744Z" fill="#EBEBEB"/>
<path d="M207.029 121.744H205.26V125.273H207.029V121.744Z" fill="#EBEBEB"/>
<path d="M194.502 127.466H192.733V130.986H194.502V127.466Z" fill="#EBEBEB"/>
<path d="M197.633 127.466H195.864V130.986H197.633V127.466Z" fill="#EBEBEB"/>
<path d="M200.765 127.466H198.996V130.986H200.765V127.466Z" fill="#EBEBEB"/>
<path d="M203.897 127.466H202.128V130.986H203.897V127.466Z" fill="#EBEBEB"/>
<path d="M207.029 127.466H205.26V130.986H207.029V127.466Z" fill="#EBEBEB"/>
<path d="M194.502 133.197H192.733V136.717H194.502V133.197Z" fill="#EBEBEB"/>
<path d="M197.633 133.197H195.864V136.717H197.633V133.197Z" fill="#EBEBEB"/>
<path d="M200.765 133.197H198.996V136.717H200.765V133.197Z" fill="#EBEBEB"/>
<path d="M203.897 133.197H202.128V136.717H203.897V133.197Z" fill="#EBEBEB"/>
<path d="M207.029 133.197H205.26V136.717H207.029V133.197Z" fill="#EBEBEB"/>
<path d="M194.502 138.928H192.733V142.457H194.502V138.928Z" fill="#EBEBEB"/>
<path d="M197.633 138.928H195.864V142.457H197.633V138.928Z" fill="#EBEBEB"/>
<path d="M200.765 138.928H198.996V142.457H200.765V138.928Z" fill="#EBEBEB"/>
<path d="M203.897 138.928H202.128V142.457H203.897V138.928Z" fill="#EBEBEB"/>
<path d="M207.029 138.928H205.26V142.457H207.029V138.928Z" fill="#EBEBEB"/>
<path d="M194.502 144.65H192.733V148.17H194.502V144.65Z" fill="#EBEBEB"/>
<path d="M197.633 144.65H195.864V148.17H197.633V144.65Z" fill="#EBEBEB"/>
<path d="M200.765 144.65H198.996V148.17H200.765V144.65Z" fill="#EBEBEB"/>
<path d="M203.897 144.65H202.128V148.17H203.897V144.65Z" fill="#EBEBEB"/>
<path d="M207.029 144.65H205.26V148.17H207.029V144.65Z" fill="#EBEBEB"/>
<path d="M194.502 150.381H192.733V153.901H194.502V150.381Z" fill="#EBEBEB"/>
<path d="M197.633 150.381H195.864V153.901H197.633V150.381Z" fill="#EBEBEB"/>
<path d="M200.765 150.381H198.996V153.901H200.765V150.381Z" fill="#EBEBEB"/>
<path d="M203.897 150.381H202.128V153.901H203.897V150.381Z" fill="#EBEBEB"/>
<path d="M207.029 150.381H205.26V153.901H207.029V150.381Z" fill="#EBEBEB"/>
<path d="M194.502 156.103H192.733V159.623H194.502V156.103Z" fill="#EBEBEB"/>
<path d="M197.633 156.103H195.864V159.623H197.633V156.103Z" fill="#EBEBEB"/>
<path d="M200.765 156.103H198.996V159.623H200.765V156.103Z" fill="#EBEBEB"/>
<path d="M203.897 156.103H202.128V159.623H203.897V156.103Z" fill="#EBEBEB"/>
<path d="M207.029 156.103H205.26V159.623H207.029V156.103Z" fill="#EBEBEB"/>
<path d="M194.502 161.834H192.733V165.354H194.502V161.834Z" fill="#EBEBEB"/>
<path d="M197.633 161.834H195.864V165.354H197.633V161.834Z" fill="#EBEBEB"/>
<path d="M200.765 161.834H198.996V165.354H200.765V161.834Z" fill="#EBEBEB"/>
<path d="M203.897 161.834H202.128V165.354H203.897V161.834Z" fill="#EBEBEB"/>
<path d="M207.029 161.834H205.26V165.354H207.029V161.834Z" fill="#EBEBEB"/>
<path d="M194.502 167.565H192.733V169.758H194.502V167.565Z" fill="#EBEBEB"/>
<path d="M197.633 167.565H195.864V169.758H197.633V167.565Z" fill="#EBEBEB"/>
<path d="M200.765 167.565H198.996V169.758H200.765V167.565Z" fill="#EBEBEB"/>
<path d="M203.897 167.565H202.128V169.758H203.897V167.565Z" fill="#EBEBEB"/>
<path d="M207.029 167.565H205.26V169.758H207.029V167.565Z" fill="#EBEBEB"/>
<path d="M219.817 88.2157H208.608V169.758H219.817V88.2157Z" fill="#DBDBDB"/>
<path d="M220.305 86.4287H208.608V88.2157H220.305V86.4287Z" fill="#C7C7C7"/>
<path d="M211.956 90.842H210.188V169.758H211.956V90.842Z" fill="#C7C7C7"/>
<path d="M215.097 90.842H213.328V169.758H215.097V90.842Z" fill="#C7C7C7"/>
<path d="M218.229 90.842H216.46V169.758H218.229V90.842Z" fill="#C7C7C7"/>
<path d="M211.956 93.0983H210.188V96.6182H211.956V93.0983Z" fill="#DBDBDB"/>
<path d="M215.097 93.0983H213.328V96.6182H215.097V93.0983Z" fill="#DBDBDB"/>
<path d="M218.229 93.0983H216.46V96.6182H218.229V93.0983Z" fill="#DBDBDB"/>
<path d="M211.956 98.8293H210.188V102.358H211.956V98.8293Z" fill="#DBDBDB"/>
<path d="M215.097 98.8293H213.328V102.358H215.097V98.8293Z" fill="#DBDBDB"/>
<path d="M218.229 98.8293H216.46V102.358H218.229V98.8293Z" fill="#DBDBDB"/>
<path d="M211.956 104.56H210.188V108.08H211.956V104.56Z" fill="#DBDBDB"/>
<path d="M215.097 104.56H213.328V108.08H215.097V104.56Z" fill="#DBDBDB"/>
<path d="M218.229 104.56H216.46V108.08H218.229V104.56Z" fill="#DBDBDB"/>
<path d="M211.956 110.282H210.188V113.811H211.956V110.282Z" fill="#DBDBDB"/>
<path d="M215.097 110.282H213.328V113.811H215.097V110.282Z" fill="#DBDBDB"/>
<path d="M218.229 110.282H216.46V113.811H218.229V110.282Z" fill="#DBDBDB"/>
<path d="M211.956 116.013H210.188V119.533H211.956V116.013Z" fill="#DBDBDB"/>
<path d="M215.097 116.013H213.328V119.533H215.097V116.013Z" fill="#DBDBDB"/>
<path d="M218.229 116.013H216.46V119.533H218.229V116.013Z" fill="#DBDBDB"/>
<path d="M211.956 121.744H210.188V125.273H211.956V121.744Z" fill="#DBDBDB"/>
<path d="M215.097 121.744H213.328V125.273H215.097V121.744Z" fill="#DBDBDB"/>
<path d="M218.229 121.744H216.46V125.273H218.229V121.744Z" fill="#DBDBDB"/>
<path d="M211.956 127.466H210.188V130.986H211.956V127.466Z" fill="#DBDBDB"/>
<path d="M215.097 127.466H213.328V130.986H215.097V127.466Z" fill="#DBDBDB"/>
<path d="M218.229 127.466H216.46V130.986H218.229V127.466Z" fill="#DBDBDB"/>
<path d="M211.956 133.197H210.188V136.717H211.956V133.197Z" fill="#DBDBDB"/>
<path d="M215.097 133.197H213.328V136.717H215.097V133.197Z" fill="#DBDBDB"/>
<path d="M218.229 133.197H216.46V136.717H218.229V133.197Z" fill="#DBDBDB"/>
<path d="M211.956 138.928H210.188V142.457H211.956V138.928Z" fill="#DBDBDB"/>
<path d="M215.097 138.928H213.328V142.457H215.097V138.928Z" fill="#DBDBDB"/>
<path d="M218.229 138.928H216.46V142.457H218.229V138.928Z" fill="#DBDBDB"/>
<path d="M211.956 144.65H210.188V148.17H211.956V144.65Z" fill="#DBDBDB"/>
<path d="M215.097 144.65H213.328V148.17H215.097V144.65Z" fill="#DBDBDB"/>
<path d="M218.229 144.65H216.46V148.17H218.229V144.65Z" fill="#DBDBDB"/>
<path d="M211.956 150.381H210.188V153.901H211.956V150.381Z" fill="#DBDBDB"/>
<path d="M215.097 150.381H213.328V153.901H215.097V150.381Z" fill="#DBDBDB"/>
<path d="M218.229 150.381H216.46V153.901H218.229V150.381Z" fill="#DBDBDB"/>
<path d="M211.956 156.103H210.188V159.623H211.956V156.103Z" fill="#DBDBDB"/>
<path d="M215.097 156.103H213.328V159.623H215.097V156.103Z" fill="#DBDBDB"/>
<path d="M218.229 156.103H216.46V159.623H218.229V156.103Z" fill="#DBDBDB"/>
<path d="M211.956 161.834H210.188V165.354H211.956V161.834Z" fill="#DBDBDB"/>
<path d="M215.097 161.834H213.328V165.354H215.097V161.834Z" fill="#DBDBDB"/>
<path d="M218.229 161.834H216.46V165.354H218.229V161.834Z" fill="#DBDBDB"/>
<path d="M211.956 167.565H210.188V169.758H211.956V167.565Z" fill="#DBDBDB"/>
<path d="M215.097 167.565H213.328V169.758H215.097V167.565Z" fill="#DBDBDB"/>
<path d="M218.229 167.565H216.46V169.758H218.229V167.565Z" fill="#DBDBDB"/>
<path d="M170.215 118.179H152.832V169.758H170.215V118.179Z" fill="#EBEBEB"/>
<path d="M170.215 113.811H155.305V118.188H170.215V113.811Z" fill="#C7C7C7"/>
<path d="M168.32 120.463H154.746V169.758H168.32V120.463Z" fill="#DBDBDB"/>
<path d="M168.32 125.174H154.746V126.338H168.32V125.174Z" fill="#DAEAEB"/>
<path d="M168.32 129.993H154.746V131.158H168.32V129.993Z" fill="#DAEAEB"/>
<path d="M168.32 134.822H154.746V135.986H168.32V134.822Z" fill="#DAEAEB"/>
<path d="M168.32 139.641H154.746V140.805H168.32V139.641Z" fill="#DAEAEB"/>
<path d="M168.32 144.47H154.746V145.634H168.32V144.47Z" fill="#DAEAEB"/>
<path d="M168.32 149.298H154.746V150.462H168.32V149.298Z" fill="#DAEAEB"/>
<path d="M168.32 154.118H154.746V155.282H168.32V154.118Z" fill="#DAEAEB"/>
<path d="M168.32 158.946H154.746V160.11H168.32V158.946Z" fill="#DAEAEB"/>
<path d="M168.32 163.766H154.746V164.93H168.32V163.766Z" fill="#DAEAEB"/>
<path d="M168.32 168.594H154.746V169.758H168.32V168.594Z" fill="#DAEAEB"/>
<path d="M181.117 118.179H170.224V169.758H181.117V118.179Z" fill="#DBDBDB"/>
<path d="M179.484 113.811H170.224V118.188H179.484V113.811Z" fill="#A6A6A6"/>
<path d="M180.097 120.463H171.722V169.758H180.097V120.463Z" fill="#C7C7C7"/>
<path d="M180.097 125.174H171.722V126.338H180.097V125.174Z" fill="#DAEAEB"/>
<path d="M180.097 129.993H171.722V131.158H180.097V129.993Z" fill="#DAEAEB"/>
<path d="M180.097 134.822H171.722V135.986H180.097V134.822Z" fill="#DAEAEB"/>
<path d="M180.097 139.641H171.722V140.805H180.097V139.641Z" fill="#DAEAEB"/>
<path d="M180.097 144.47H171.722V145.634H180.097V144.47Z" fill="#DAEAEB"/>
<path d="M180.097 149.298H171.722V150.462H180.097V149.298Z" fill="#DAEAEB"/>
<path d="M180.097 154.118H171.722V155.282H180.097V154.118Z" fill="#DAEAEB"/>
<path d="M180.097 158.946H171.722V160.11H180.097V158.946Z" fill="#DAEAEB"/>
<path d="M180.097 163.766H171.722V164.93H180.097V163.766Z" fill="#DAEAEB"/>
<path d="M180.097 168.594H171.722V169.758H180.097V168.594Z" fill="#DAEAEB"/>
<path d="M268.779 118.179H251.396V169.758H268.779V118.179Z" fill="#EBEBEB"/>
<path d="M268.779 113.811H253.869V118.188H268.779V113.811Z" fill="#C7C7C7"/>
<path d="M266.884 120.463H253.31V169.758H266.884V120.463Z" fill="#DBDBDB"/>
<path d="M266.884 125.174H253.31V126.338H266.884V125.174Z" fill="#DAEAEB"/>
<path d="M266.884 129.993H253.31V131.158H266.884V129.993Z" fill="#DAEAEB"/>
<path d="M266.884 134.822H253.31V135.986H266.884V134.822Z" fill="#DAEAEB"/>
<path d="M266.884 139.641H253.31V140.805H266.884V139.641Z" fill="#DAEAEB"/>
<path d="M266.884 144.47H253.31V145.634H266.884V144.47Z" fill="#DAEAEB"/>
<path d="M266.884 149.298H253.31V150.462H266.884V149.298Z" fill="#DAEAEB"/>
<path d="M266.884 154.118H253.31V155.282H266.884V154.118Z" fill="#DAEAEB"/>
<path d="M266.884 158.946H253.31V160.11H266.884V158.946Z" fill="#DAEAEB"/>
<path d="M266.884 163.766H253.31V164.93H266.884V163.766Z" fill="#DAEAEB"/>
<path d="M266.884 168.594H253.31V169.758H266.884V168.594Z" fill="#DAEAEB"/>
<path d="M279.681 118.179H268.788V169.758H279.681V118.179Z" fill="#DBDBDB"/>
<path d="M278.048 113.811H268.788V118.188H278.048V113.811Z" fill="#A6A6A6"/>
<path d="M278.661 120.463H270.286V169.758H278.661V120.463Z" fill="#C7C7C7"/>
<path d="M278.661 125.174H270.286V126.338H278.661V125.174Z" fill="#DAEAEB"/>
<path d="M278.661 129.993H270.286V131.158H278.661V129.993Z" fill="#DAEAEB"/>
<path d="M278.661 134.822H270.286V135.986H278.661V134.822Z" fill="#DAEAEB"/>
<path d="M278.661 139.641H270.286V140.805H278.661V139.641Z" fill="#DAEAEB"/>
<path d="M278.661 144.47H270.286V145.634H278.661V144.47Z" fill="#DAEAEB"/>
<path d="M278.661 149.298H270.286V150.462H278.661V149.298Z" fill="#DAEAEB"/>
<path d="M278.661 154.118H270.286V155.282H278.661V154.118Z" fill="#DAEAEB"/>
<path d="M278.661 158.946H270.286V160.11H278.661V158.946Z" fill="#DAEAEB"/>
<path d="M278.661 163.766H270.286V164.93H278.661V163.766Z" fill="#DAEAEB"/>
<path d="M278.661 168.594H270.286V169.758H278.661V168.594Z" fill="#DAEAEB"/>
<path d="M221.288 114.181H205.639V169.767H221.288V114.181Z" fill="#DBDBDB"/>
<path d="M210.873 117.223H208.103V119.38H210.873V117.223Z" fill="#C7C7C7"/>
<path d="M210.873 121.816H208.103V123.973H210.873V121.816Z" fill="#C7C7C7"/>
<path d="M210.873 126.419H208.103V128.576H210.873V126.419Z" fill="#C7C7C7"/>
<path d="M210.873 131.022H208.103V133.179H210.873V131.022Z" fill="#C7C7C7"/>
<path d="M210.873 135.625H208.103V137.782H210.873V135.625Z" fill="#C7C7C7"/>
<path d="M210.873 140.219H208.103V142.376H210.873V140.219Z" fill="#C7C7C7"/>
<path d="M210.873 144.822H208.103V146.979H210.873V144.822Z" fill="#C7C7C7"/>
<path d="M214.862 117.223H212.092V119.38H214.862V117.223Z" fill="#C7C7C7"/>
<path d="M214.862 121.816H212.092V123.973H214.862V121.816Z" fill="#C7C7C7"/>
<path d="M214.862 126.419H212.092V128.576H214.862V126.419Z" fill="#C7C7C7"/>
<path d="M214.862 131.022H212.092V133.179H214.862V131.022Z" fill="#C7C7C7"/>
<path d="M214.862 135.625H212.092V137.782H214.862V135.625Z" fill="#C7C7C7"/>
<path d="M214.862 140.219H212.092V142.376H214.862V140.219Z" fill="#C7C7C7"/>
<path d="M214.862 144.822H212.092V146.979H214.862V144.822Z" fill="#C7C7C7"/>
<path d="M218.834 117.223H216.063V119.38H218.834V117.223Z" fill="#C7C7C7"/>
<path d="M218.834 121.816H216.063V123.973H218.834V121.816Z" fill="#C7C7C7"/>
<path d="M218.834 126.419H216.063V128.576H218.834V126.419Z" fill="#C7C7C7"/>
<path d="M218.834 131.022H216.063V133.179H218.834V131.022Z" fill="#C7C7C7"/>
<path d="M218.834 135.625H216.063V137.782H218.834V135.625Z" fill="#C7C7C7"/>
<path d="M218.834 140.219H216.063V142.376H218.834V140.219Z" fill="#C7C7C7"/>
<path d="M218.834 144.822H216.063V146.979H218.834V144.822Z" fill="#C7C7C7"/>
<path d="M210.873 149.425H208.103V151.582H210.873V149.425Z" fill="#C7C7C7"/>
<path d="M214.862 149.425H212.092V151.582H214.862V149.425Z" fill="#C7C7C7"/>
<path d="M218.834 149.425H216.063V151.582H218.834V149.425Z" fill="#C7C7C7"/>
<path d="M210.873 154.018H208.103V156.175H210.873V154.018Z" fill="#C7C7C7"/>
<path d="M214.862 154.018H212.092V156.175H214.862V154.018Z" fill="#C7C7C7"/>
<path d="M218.834 154.018H216.063V156.175H218.834V154.018Z" fill="#C7C7C7"/>
<path d="M210.873 158.621H208.103V160.778H210.873V158.621Z" fill="#C7C7C7"/>
<path d="M214.862 158.621H212.092V160.778H214.862V158.621Z" fill="#C7C7C7"/>
<path d="M218.834 158.621H216.063V160.778H218.834V158.621Z" fill="#C7C7C7"/>
<path d="M210.873 163.224H208.103V165.381H210.873V163.224Z" fill="#C7C7C7"/>
<path d="M214.862 163.224H212.092V165.381H214.862V163.224Z" fill="#C7C7C7"/>
<path d="M218.834 163.224H216.063V165.381H218.834V163.224Z" fill="#C7C7C7"/>
<path d="M232.272 114.181H221.288V169.767H232.272V114.181Z" fill="#A6A6A6"/>
<path d="M228.888 146.636H231.144V144.479H228.888V146.636Z" fill="#C7C7C7"/>
<path d="M228.888 142.033H231.144V139.876H228.888V142.033Z" fill="#C7C7C7"/>
<path d="M228.888 137.43H231.144V135.273H228.888V137.43Z" fill="#C7C7C7"/>
<path d="M228.888 132.827H231.144V130.67H228.888V132.827Z" fill="#C7C7C7"/>
<path d="M228.888 128.233H231.144V126.076H228.888V128.233Z" fill="#C7C7C7"/>
<path d="M228.888 123.631H231.144V121.474H228.888V123.631Z" fill="#C7C7C7"/>
<path d="M228.888 119.028H231.144V116.871H228.888V119.028Z" fill="#C7C7C7"/>
<path d="M225.647 146.636H227.904V144.479H225.647V146.636Z" fill="#C7C7C7"/>
<path d="M225.647 142.033H227.904V139.876H225.647V142.033Z" fill="#C7C7C7"/>
<path d="M225.647 137.43H227.904V135.273H225.647V137.43Z" fill="#C7C7C7"/>
<path d="M225.647 132.827H227.904V130.67H225.647V132.827Z" fill="#C7C7C7"/>
<path d="M225.647 128.233H227.904V126.076H225.647V128.233Z" fill="#C7C7C7"/>
<path d="M225.647 123.631H227.904V121.474H225.647V123.631Z" fill="#C7C7C7"/>
<path d="M225.647 119.028H227.904V116.871H225.647V119.028Z" fill="#C7C7C7"/>
<path d="M222.417 146.636H224.673V144.479H222.417V146.636Z" fill="#C7C7C7"/>
<path d="M222.417 142.033H224.673V139.876H222.417V142.033Z" fill="#C7C7C7"/>
<path d="M228.888 151.23H231.144V149.073H228.888V151.23Z" fill="#C7C7C7"/>
<path d="M225.647 151.23H227.904V149.073H225.647V151.23Z" fill="#C7C7C7"/>
<path d="M222.417 151.23H224.673V149.073H222.417V151.23Z" fill="#C7C7C7"/>
<path d="M228.888 155.832H231.144V153.675H228.888V155.832Z" fill="#C7C7C7"/>
<path d="M225.647 155.832H227.904V153.675H225.647V155.832Z" fill="#C7C7C7"/>
<path d="M222.417 155.832H224.673V153.675H222.417V155.832Z" fill="#C7C7C7"/>
<path d="M228.888 160.435H231.144V158.278H228.888V160.435Z" fill="#C7C7C7"/>
<path d="M225.647 160.435H227.904V158.278H225.647V160.435Z" fill="#C7C7C7"/>
<path d="M222.417 160.435H224.673V158.278H222.417V160.435Z" fill="#C7C7C7"/>
<path d="M228.888 165.029H231.144V162.872H228.888V165.029Z" fill="#C7C7C7"/>
<path d="M225.647 165.029H227.904V162.872H225.647V165.029Z" fill="#C7C7C7"/>
<path d="M222.417 165.029H224.673V162.872H222.417V165.029Z" fill="#C7C7C7"/>
<path d="M222.417 137.43H224.673V135.273H222.417V137.43Z" fill="#C7C7C7"/>
<path d="M222.417 132.827H224.673V130.67H222.417V132.827Z" fill="#C7C7C7"/>
<path d="M222.417 128.233H224.673V126.076H222.417V128.233Z" fill="#C7C7C7"/>
<path d="M222.417 123.631H224.673V121.474H222.417V123.631Z" fill="#C7C7C7"/>
<path d="M222.417 119.028H224.673V116.871H222.417V119.028Z" fill="#C7C7C7"/>
<path d="M347.506 114.181H331.856V169.767H347.506V114.181Z" fill="#DBDBDB"/>
<path d="M337.091 117.223H334.32V119.38H337.091V117.223Z" fill="#C7C7C7"/>
<path d="M337.091 121.816H334.32V123.973H337.091V121.816Z" fill="#C7C7C7"/>
<path d="M337.091 126.419H334.32V128.576H337.091V126.419Z" fill="#C7C7C7"/>
<path d="M337.091 131.022H334.32V133.179H337.091V131.022Z" fill="#C7C7C7"/>
<path d="M337.091 135.625H334.32V137.782H337.091V135.625Z" fill="#C7C7C7"/>
<path d="M337.091 140.219H334.32V142.376H337.091V140.219Z" fill="#C7C7C7"/>
<path d="M337.091 144.822H334.32V146.979H337.091V144.822Z" fill="#C7C7C7"/>
<path d="M341.071 117.223H338.3V119.38H341.071V117.223Z" fill="#C7C7C7"/>
<path d="M341.071 121.816H338.3V123.973H341.071V121.816Z" fill="#C7C7C7"/>
<path d="M341.071 126.419H338.3V128.576H341.071V126.419Z" fill="#C7C7C7"/>
<path d="M341.071 131.022H338.3V133.179H341.071V131.022Z" fill="#C7C7C7"/>
<path d="M341.071 135.625H338.3V137.782H341.071V135.625Z" fill="#C7C7C7"/>
<path d="M341.071 140.219H338.3V142.376H341.071V140.219Z" fill="#C7C7C7"/>
<path d="M341.071 144.822H338.3V146.979H341.071V144.822Z" fill="#C7C7C7"/>
<path d="M345.051 117.223H342.28V119.38H345.051V117.223Z" fill="#C7C7C7"/>
<path d="M345.051 121.816H342.28V123.973H345.051V121.816Z" fill="#C7C7C7"/>
<path d="M345.051 126.419H342.28V128.576H345.051V126.419Z" fill="#C7C7C7"/>
<path d="M345.051 131.022H342.28V133.179H345.051V131.022Z" fill="#C7C7C7"/>
<path d="M345.051 135.625H342.28V137.782H345.051V135.625Z" fill="#C7C7C7"/>
<path d="M345.051 140.219H342.28V142.376H345.051V140.219Z" fill="#C7C7C7"/>
<path d="M345.051 144.822H342.28V146.979H345.051V144.822Z" fill="#C7C7C7"/>
<path d="M337.091 149.425H334.32V151.582H337.091V149.425Z" fill="#C7C7C7"/>
<path d="M341.071 149.425H338.3V151.582H341.071V149.425Z" fill="#C7C7C7"/>
<path d="M345.051 149.425H342.28V151.582H345.051V149.425Z" fill="#C7C7C7"/>
<path d="M337.091 154.018H334.32V156.175H337.091V154.018Z" fill="#C7C7C7"/>
<path d="M341.071 154.018H338.3V156.175H341.071V154.018Z" fill="#C7C7C7"/>
<path d="M345.051 154.018H342.28V156.175H345.051V154.018Z" fill="#C7C7C7"/>
<path d="M337.091 158.621H334.32V160.778H337.091V158.621Z" fill="#C7C7C7"/>
<path d="M341.071 158.621H338.3V160.778H341.071V158.621Z" fill="#C7C7C7"/>
<path d="M345.051 158.621H342.28V160.778H345.051V158.621Z" fill="#C7C7C7"/>
<path d="M337.091 163.224H334.32V165.381H337.091V163.224Z" fill="#C7C7C7"/>
<path d="M341.071 163.224H338.3V165.381H341.071V163.224Z" fill="#C7C7C7"/>
<path d="M345.051 163.224H342.28V165.381H345.051V163.224Z" fill="#C7C7C7"/>
<path d="M358.489 114.181H347.506V169.767H358.489V114.181Z" fill="#A6A6A6"/>
<path d="M355.114 146.636H357.37V144.479H355.114V146.636Z" fill="#C7C7C7"/>
<path d="M355.114 142.033H357.37V139.876H355.114V142.033Z" fill="#C7C7C7"/>
<path d="M355.114 137.43H357.37V135.273H355.114V137.43Z" fill="#C7C7C7"/>
<path d="M355.114 132.827H357.37V130.67H355.114V132.827Z" fill="#C7C7C7"/>
<path d="M355.114 128.233H357.37V126.076H355.114V128.233Z" fill="#C7C7C7"/>
<path d="M355.114 123.631H357.37V121.474H355.114V123.631Z" fill="#C7C7C7"/>
<path d="M355.114 119.028H357.37V116.871H355.114V119.028Z" fill="#C7C7C7"/>
<path d="M351.865 146.636H354.121V144.479H351.865V146.636Z" fill="#C7C7C7"/>
<path d="M351.865 142.033H354.121V139.876H351.865V142.033Z" fill="#C7C7C7"/>
<path d="M351.865 137.43H354.121V135.273H351.865V137.43Z" fill="#C7C7C7"/>
<path d="M351.865 132.827H354.121V130.67H351.865V132.827Z" fill="#C7C7C7"/>
<path d="M351.865 128.233H354.121V126.076H351.865V128.233Z" fill="#C7C7C7"/>
<path d="M351.865 123.631H354.121V121.474H351.865V123.631Z" fill="#C7C7C7"/>
<path d="M351.865 119.028H354.121V116.871H351.865V119.028Z" fill="#C7C7C7"/>
<path d="M348.625 146.636H350.881V144.479H348.625V146.636Z" fill="#C7C7C7"/>
<path d="M348.625 142.033H350.881V139.876H348.625V142.033Z" fill="#C7C7C7"/>
<path d="M355.114 151.23H357.37V149.073H355.114V151.23Z" fill="#C7C7C7"/>
<path d="M351.865 151.23H354.121V149.073H351.865V151.23Z" fill="#C7C7C7"/>
<path d="M348.625 151.23H350.881V149.073H348.625V151.23Z" fill="#C7C7C7"/>
<path d="M355.114 155.832H357.37V153.675H355.114V155.832Z" fill="#C7C7C7"/>
<path d="M351.865 155.832H354.121V153.675H351.865V155.832Z" fill="#C7C7C7"/>
<path d="M348.625 155.832H350.881V153.675H348.625V155.832Z" fill="#C7C7C7"/>
<path d="M355.114 160.435H357.37V158.278H355.114V160.435Z" fill="#C7C7C7"/>
<path d="M351.865 160.435H354.121V158.278H351.865V160.435Z" fill="#C7C7C7"/>
<path d="M348.625 160.435H350.881V158.278H348.625V160.435Z" fill="#C7C7C7"/>
<path d="M355.114 165.029H357.37V162.872H355.114V165.029Z" fill="#C7C7C7"/>
<path d="M351.865 165.029H354.121V162.872H351.865V165.029Z" fill="#C7C7C7"/>
<path d="M348.625 165.029H350.881V162.872H348.625V165.029Z" fill="#C7C7C7"/>
<path d="M348.625 137.43H350.881V135.273H348.625V137.43Z" fill="#C7C7C7"/>
<path d="M348.625 132.827H350.881V130.67H348.625V132.827Z" fill="#C7C7C7"/>
<path d="M348.625 128.233H350.881V126.076H348.625V128.233Z" fill="#C7C7C7"/>
<path d="M348.625 123.631H350.881V121.474H348.625V123.631Z" fill="#C7C7C7"/>
<path d="M348.625 119.028H350.881V116.871H348.625V119.028Z" fill="#C7C7C7"/>
<path d="M314.627 104.93H305.34V115.896H314.627V104.93Z" fill="#DBDBDB"/>
<path d="M320.511 104.93H314.627V116.302H320.511V104.93Z" fill="#C7C7C7"/>
<path d="M320.899 109.777H315.06V116.302H320.899V109.777Z" fill="#DBDBDB"/>
<path d="M324.546 109.777H320.899V116.302H324.546V109.777Z" fill="#C7C7C7"/>
<path d="M316.793 115.192H301.775V169.767H316.793V115.192Z" fill="#EBEBEB"/>
<path d="M308.21 117.53H303.49V119.461H308.21V117.53Z" fill="#DAEAEB"/>
<path d="M314.248 117.53H309.528V119.461H314.248V117.53Z" fill="#DAEAEB"/>
<path d="M308.21 120.806H303.49V122.737H308.21V120.806Z" fill="#DAEAEB"/>
<path d="M314.248 120.806H309.528V122.737H314.248V120.806Z" fill="#DAEAEB"/>
<path d="M308.21 124.082H303.49V126.013H308.21V124.082Z" fill="#DAEAEB"/>
<path d="M314.248 124.082H309.528V126.013H314.248V124.082Z" fill="#DAEAEB"/>
<path d="M308.21 127.358H303.49V129.289H308.21V127.358Z" fill="#DAEAEB"/>
<path d="M314.248 127.358H309.528V129.289H314.248V127.358Z" fill="#DAEAEB"/>
<path d="M308.21 130.634H303.49V132.565H308.21V130.634Z" fill="#DAEAEB"/>
<path d="M314.248 130.634H309.528V132.565H314.248V130.634Z" fill="#DAEAEB"/>
<path d="M308.21 133.91H303.49V135.842H308.21V133.91Z" fill="#DAEAEB"/>
<path d="M314.248 133.91H309.528V135.842H314.248V133.91Z" fill="#DAEAEB"/>
<path d="M308.21 137.186H303.49V139.118H308.21V137.186Z" fill="#DAEAEB"/>
<path d="M314.248 137.186H309.528V139.118H314.248V137.186Z" fill="#DAEAEB"/>
<path d="M308.21 140.462H303.49V142.394H308.21V140.462Z" fill="#DAEAEB"/>
<path d="M314.248 140.462H309.528V142.394H314.248V140.462Z" fill="#DAEAEB"/>
<path d="M308.21 143.739H303.49V145.67H308.21V143.739Z" fill="#DAEAEB"/>
<path d="M314.248 143.739H309.528V145.67H314.248V143.739Z" fill="#DAEAEB"/>
<path d="M308.21 147.015H303.49V148.946H308.21V147.015Z" fill="#DAEAEB"/>
<path d="M314.248 147.015H309.528V148.946H314.248V147.015Z" fill="#DAEAEB"/>
<path d="M308.21 150.291H303.49V152.222H308.21V150.291Z" fill="#DAEAEB"/>
<path d="M314.248 150.291H309.528V152.222H314.248V150.291Z" fill="#DAEAEB"/>
<path d="M308.21 153.567H303.49V155.498H308.21V153.567Z" fill="#DAEAEB"/>
<path d="M314.248 153.567H309.528V155.498H314.248V153.567Z" fill="#DAEAEB"/>
<path d="M308.21 156.843H303.49V158.775H308.21V156.843Z" fill="#DAEAEB"/>
<path d="M314.248 156.843H309.528V158.775H314.248V156.843Z" fill="#DAEAEB"/>
<path d="M308.21 160.119H303.49V162.051H308.21V160.119Z" fill="#DAEAEB"/>
<path d="M314.248 160.119H309.528V162.051H314.248V160.119Z" fill="#DAEAEB"/>
<path d="M328.959 115.192H316.793V169.767H328.959V115.192Z" fill="#C7C7C7"/>
<path d="M323.86 162.042H327.74V160.11H323.86V162.042Z" fill="#EBEBEB"/>
<path d="M318.896 162.042H322.777V160.11H318.896V162.042Z" fill="#EBEBEB"/>
<path d="M323.86 158.766H327.74V156.834H323.86V158.766Z" fill="#EBEBEB"/>
<path d="M318.896 158.766H322.777V156.834H318.896V158.766Z" fill="#EBEBEB"/>
<path d="M323.86 155.489H327.74V153.558H323.86V155.489Z" fill="#EBEBEB"/>
<path d="M318.896 155.489H322.777V153.558H318.896V155.489Z" fill="#EBEBEB"/>
<path d="M323.86 152.213H327.74V150.282H323.86V152.213Z" fill="#EBEBEB"/>
<path d="M318.896 152.213H322.777V150.282H318.896V152.213Z" fill="#EBEBEB"/>
<path d="M323.86 148.946H327.74V147.015H323.86V148.946Z" fill="#EBEBEB"/>
<path d="M318.896 148.946H322.777V147.015H318.896V148.946Z" fill="#EBEBEB"/>
<path d="M323.86 145.67H327.74V143.739H323.86V145.67Z" fill="#EBEBEB"/>
<path d="M318.896 145.67H322.777V143.739H318.896V145.67Z" fill="#EBEBEB"/>
<path d="M323.86 142.394H327.74V140.463H323.86V142.394Z" fill="#EBEBEB"/>
<path d="M318.896 142.394H322.777V140.463H318.896V142.394Z" fill="#EBEBEB"/>
<path d="M323.86 139.118H327.74V137.186H323.86V139.118Z" fill="#EBEBEB"/>
<path d="M318.896 139.118H322.777V137.186H318.896V139.118Z" fill="#EBEBEB"/>
<path d="M323.86 135.842H327.74V133.91H323.86V135.842Z" fill="#EBEBEB"/>
<path d="M318.896 135.842H322.777V133.91H318.896V135.842Z" fill="#EBEBEB"/>
<path d="M323.86 132.565H327.74V130.634H323.86V132.565Z" fill="#EBEBEB"/>
<path d="M318.896 132.565H322.777V130.634H318.896V132.565Z" fill="#EBEBEB"/>
<path d="M323.86 129.289H327.74V127.358H323.86V129.289Z" fill="#EBEBEB"/>
<path d="M318.896 129.289H322.777V127.358H318.896V129.289Z" fill="#EBEBEB"/>
<path d="M323.86 126.013H327.74V124.082H323.86V126.013Z" fill="#EBEBEB"/>
<path d="M318.896 126.013H322.777V124.082H318.896V126.013Z" fill="#EBEBEB"/>
<path d="M323.86 122.746H327.74V120.815H323.86V122.746Z" fill="#EBEBEB"/>
<path d="M318.896 122.746H322.777V120.815H318.896V122.746Z" fill="#EBEBEB"/>
<path d="M323.86 119.47H327.74V117.539H323.86V119.47Z" fill="#EBEBEB"/>
<path d="M318.896 119.47H322.777V117.539H318.896V119.47Z" fill="#EBEBEB"/>
<path d="M252.94 134.199H235.232V169.758H252.94V134.199Z" fill="#C7C7C7"/>
<path d="M241.153 137.277H238.021V139.452H241.153V137.277Z" fill="#DBDBDB"/>
<path d="M241.153 141.934H238.021V144.109H241.153V141.934Z" fill="#DBDBDB"/>
<path d="M241.153 146.582H238.021V148.757H241.153V146.582Z" fill="#DBDBDB"/>
<path d="M241.153 151.239H238.021V153.414H241.153V151.239Z" fill="#DBDBDB"/>
<path d="M241.153 155.896H238.021V158.071H241.153V155.896Z" fill="#DBDBDB"/>
<path d="M241.153 160.544H238.021V162.719H241.153V160.544Z" fill="#DBDBDB"/>
<path d="M241.153 165.201H238.021V167.376H241.153V165.201Z" fill="#DBDBDB"/>
<path d="M245.656 137.277H242.525V139.452H245.656V137.277Z" fill="#DBDBDB"/>
<path d="M245.656 141.934H242.525V144.109H245.656V141.934Z" fill="#DBDBDB"/>
<path d="M245.656 146.582H242.525V148.757H245.656V146.582Z" fill="#DBDBDB"/>
<path d="M245.656 151.239H242.525V153.414H245.656V151.239Z" fill="#DBDBDB"/>
<path d="M245.656 155.896H242.525V158.071H245.656V155.896Z" fill="#DBDBDB"/>
<path d="M245.656 160.544H242.525V162.719H245.656V160.544Z" fill="#DBDBDB"/>
<path d="M245.656 165.201H242.525V167.376H245.656V165.201Z" fill="#DBDBDB"/>
<path d="M250.16 137.277H247.028V139.452H250.16V137.277Z" fill="#DBDBDB"/>
<path d="M250.16 141.934H247.028V144.109H250.16V141.934Z" fill="#DBDBDB"/>
<path d="M250.16 146.582H247.028V148.757H250.16V146.582Z" fill="#DBDBDB"/>
<path d="M250.16 151.239H247.028V153.414H250.16V151.239Z" fill="#DBDBDB"/>
<path d="M250.16 155.896H247.028V158.071H250.16V155.896Z" fill="#DBDBDB"/>
<path d="M250.16 160.544H247.028V162.719H250.16V160.544Z" fill="#DBDBDB"/>
<path d="M250.16 165.201H247.028V167.376H250.16V165.201Z" fill="#DBDBDB"/>
<path d="M252.94 130.499H241.153V134.208H252.94V130.499Z" fill="#DBDBDB"/>
<path d="M252.94 128.197H245.467V130.49H252.94V128.197Z" fill="#EBEBEB"/>
<path d="M265.376 134.199H252.949V169.758H265.376V134.199Z" fill="#A6A6A6"/>
<path d="M261.541 167.033H264.095V164.858H261.541V167.033Z" fill="#C7C7C7"/>
<path d="M261.541 162.376H264.095V160.201H261.541V162.376Z" fill="#C7C7C7"/>
<path d="M261.541 157.719H264.095V155.544H261.541V157.719Z" fill="#C7C7C7"/>
<path d="M261.541 153.071H264.095V150.896H261.541V153.071Z" fill="#C7C7C7"/>
<path d="M261.541 148.414H264.095V146.239H261.541V148.414Z" fill="#C7C7C7"/>
<path d="M261.541 143.766H264.095V141.591H261.541V143.766Z" fill="#C7C7C7"/>
<path d="M261.541 139.109H264.095V136.934H261.541V139.109Z" fill="#C7C7C7"/>
<path d="M257.876 167.033H260.431V164.858H257.876V167.033Z" fill="#C7C7C7"/>
<path d="M257.876 162.376H260.431V160.201H257.876V162.376Z" fill="#C7C7C7"/>
<path d="M257.876 157.719H260.431V155.544H257.876V157.719Z" fill="#C7C7C7"/>
<path d="M257.876 153.071H260.431V150.896H257.876V153.071Z" fill="#C7C7C7"/>
<path d="M257.876 148.414H260.431V146.239H257.876V148.414Z" fill="#C7C7C7"/>
<path d="M257.876 143.766H260.431V141.591H257.876V143.766Z" fill="#C7C7C7"/>
<path d="M257.876 139.109H260.431V136.934H257.876V139.109Z" fill="#C7C7C7"/>
<path d="M254.212 167.033H256.766V164.858H254.212V167.033Z" fill="#C7C7C7"/>
<path d="M254.212 162.376H256.766V160.201H254.212V162.376Z" fill="#C7C7C7"/>
<path d="M254.212 157.719H256.766V155.544H254.212V157.719Z" fill="#C7C7C7"/>
<path d="M254.212 153.071H256.766V150.896H254.212V153.071Z" fill="#C7C7C7"/>
<path d="M254.212 148.414H256.766V146.239H254.212V148.414Z" fill="#C7C7C7"/>
<path d="M254.212 143.766H256.766V141.591H254.212V143.766Z" fill="#C7C7C7"/>
<path d="M254.212 139.109H256.766V136.934H254.212V139.109Z" fill="#C7C7C7"/>
<path d="M263.49 130.499H252.949V134.208H263.49V130.499Z" fill="#C7C7C7"/>
<path d="M258.662 128.197H252.949V130.49H258.662V128.197Z" fill="#DBDBDB"/>
<path d="M369.572 134.199H351.865V169.758H369.572V134.199Z" fill="#C7C7C7"/>
<path d="M357.785 137.277H354.654V139.452H357.785V137.277Z" fill="#DBDBDB"/>
<path d="M357.785 141.934H354.654V144.109H357.785V141.934Z" fill="#DBDBDB"/>
<path d="M357.785 146.582H354.654V148.757H357.785V146.582Z" fill="#DBDBDB"/>
<path d="M357.785 151.239H354.654V153.414H357.785V151.239Z" fill="#DBDBDB"/>
<path d="M357.785 155.896H354.654V158.071H357.785V155.896Z" fill="#DBDBDB"/>
<path d="M357.785 160.544H354.654V162.719H357.785V160.544Z" fill="#DBDBDB"/>
<path d="M357.785 165.201H354.654V167.376H357.785V165.201Z" fill="#DBDBDB"/>
<path d="M362.289 137.277H359.157V139.452H362.289V137.277Z" fill="#DBDBDB"/>
<path d="M362.289 141.934H359.157V144.109H362.289V141.934Z" fill="#DBDBDB"/>
<path d="M362.289 146.582H359.157V148.757H362.289V146.582Z" fill="#DBDBDB"/>
<path d="M362.289 151.239H359.157V153.414H362.289V151.239Z" fill="#DBDBDB"/>
<path d="M362.289 155.896H359.157V158.071H362.289V155.896Z" fill="#DBDBDB"/>
<path d="M362.289 160.544H359.157V162.719H362.289V160.544Z" fill="#DBDBDB"/>
<path d="M362.289 165.201H359.157V167.376H362.289V165.201Z" fill="#DBDBDB"/>
<path d="M366.792 137.277H363.661V139.452H366.792V137.277Z" fill="#DBDBDB"/>
<path d="M366.792 141.934H363.661V144.109H366.792V141.934Z" fill="#DBDBDB"/>
<path d="M366.792 146.582H363.661V148.757H366.792V146.582Z" fill="#DBDBDB"/>
<path d="M366.792 151.239H363.661V153.414H366.792V151.239Z" fill="#DBDBDB"/>
<path d="M366.792 155.896H363.661V158.071H366.792V155.896Z" fill="#DBDBDB"/>
<path d="M366.792 160.544H363.661V162.719H366.792V160.544Z" fill="#DBDBDB"/>
<path d="M366.792 165.201H363.661V167.376H366.792V165.201Z" fill="#DBDBDB"/>
<path d="M369.581 130.499H357.785V134.208H369.581V130.499Z" fill="#DBDBDB"/>
<path d="M369.572 128.197H362.099V130.49H369.572V128.197Z" fill="#EBEBEB"/>
<path d="M382 134.199H369.572V169.758H382V134.199Z" fill="#A6A6A6"/>
<path d="M378.173 167.033H380.727V164.858H378.173V167.033Z" fill="#C7C7C7"/>
<path d="M378.173 162.376H380.727V160.201H378.173V162.376Z" fill="#C7C7C7"/>
<path d="M378.173 157.719H380.727V155.544H378.173V157.719Z" fill="#C7C7C7"/>
<path d="M378.173 153.071H380.727V150.896H378.173V153.071Z" fill="#C7C7C7"/>
<path d="M378.173 148.414H380.727V146.239H378.173V148.414Z" fill="#C7C7C7"/>
<path d="M378.173 143.766H380.727V141.591H378.173V143.766Z" fill="#C7C7C7"/>
<path d="M378.173 139.109H380.727V136.934H378.173V139.109Z" fill="#C7C7C7"/>
<path d="M374.509 167.033H377.063V164.858H374.509V167.033Z" fill="#C7C7C7"/>
<path d="M374.509 162.376H377.063V160.201H374.509V162.376Z" fill="#C7C7C7"/>
<path d="M374.509 157.719H377.063V155.544H374.509V157.719Z" fill="#C7C7C7"/>
<path d="M374.509 153.071H377.063V150.896H374.509V153.071Z" fill="#C7C7C7"/>
<path d="M374.509 148.414H377.063V146.239H374.509V148.414Z" fill="#C7C7C7"/>
<path d="M374.509 143.766H377.063V141.591H374.509V143.766Z" fill="#C7C7C7"/>
<path d="M374.509 139.109H377.063V136.934H374.509V139.109Z" fill="#C7C7C7"/>
<path d="M370.854 167.033H373.408V164.858H370.854V167.033Z" fill="#C7C7C7"/>
<path d="M370.854 162.376H373.408V160.201H370.854V162.376Z" fill="#C7C7C7"/>
<path d="M370.854 157.719H373.408V155.544H370.854V157.719Z" fill="#C7C7C7"/>
<path d="M370.854 153.071H373.408V150.896H370.854V153.071Z" fill="#C7C7C7"/>
<path d="M370.854 148.414H373.408V146.239H370.854V148.414Z" fill="#C7C7C7"/>
<path d="M370.854 143.766H373.408V141.591H370.854V143.766Z" fill="#C7C7C7"/>
<path d="M370.854 139.109H373.408V136.934H370.854V139.109Z" fill="#C7C7C7"/>
<path d="M380.114 130.499H369.572V134.208H380.114V130.499Z" fill="#C7C7C7"/>
<path d="M375.285 128.197H369.572V130.49H375.285V128.197Z" fill="#DBDBDB"/>
<path d="M0 169.758L47.7522 169.542L95.4955 169.46L191 169.307L286.504 169.46L334.257 169.542L382 169.758L334.257 169.984L286.504 170.056L191 170.21L95.4955 170.056L47.7522 169.975L0 169.758Z" fill="#123033"/>
<path d="M253.445 188.314H217.796L9.19668 390.812H185.585L253.445 188.314Z" fill="#127F87"/>
<path d="M274.375 188.314H196.875L250.855 170.155L274.375 188.314Z" fill="#127F87"/>
<path d="M102.887 213.097L80.6762 219.424L129.484 290.046L166.822 247.267L102.887 213.097Z" fill="#127F87"/>
<path d="M123.356 207.267L56.4527 226.328L73.8713 204.866L123.356 207.267Z" fill="#127F87"/>
<path d="M326.748 213.097L338.336 219.424L171.027 307.555L205.476 247.267L326.748 213.097Z" fill="#127F87"/>
<path d="M316.062 207.267L350.98 226.328L369.581 204.866L316.062 207.267Z" fill="#127F87"/>
<g opacity="0.6">
<path d="M253.445 188.314H217.796L9.19668 390.812H185.585L253.445 188.314Z" fill="#DAEAEB"/>
<path d="M274.375 188.314H196.875L250.855 170.155L274.375 188.314Z" fill="#DAEAEB"/>
<path d="M102.887 213.097L80.6762 219.424L129.484 290.046L166.822 247.267L102.887 213.097Z" fill="#DAEAEB"/>
<path d="M123.356 207.267L56.4527 226.328L73.8713 204.866L123.356 207.267Z" fill="#DAEAEB"/>
<path d="M326.748 213.097L338.336 219.424L171.027 307.555L205.476 247.267L326.748 213.097Z" fill="#DAEAEB"/>
<path d="M316.062 207.267L350.98 226.328L369.581 204.866L316.062 207.267Z" fill="#DAEAEB"/>
</g>
<path d="M123.582 407.77C188.26 407.77 240.693 403.451 240.693 398.122C240.693 392.794 188.26 388.475 123.582 388.475C58.9034 388.475 6.47111 392.794 6.47111 398.122C6.47111 403.451 58.9034 407.77 123.582 407.77Z" fill="#DBDBDB"/>
<path d="M13.3932 335.975C13.3932 335.975 9.11531 376.029 9.11531 376.056C9.25971 383.448 9.52144 389.937 10.0178 393.276C10.0136 393.294 10.0136 393.312 10.0178 393.33C10.0368 394.124 10.2408 394.903 10.6135 395.604C12.8517 397.048 56.2719 397.599 58.3387 396.922C60.4054 396.245 58.6455 390.298 56.3712 388.438C54.0968 386.579 47.2648 376.318 47.2648 376.318L51.1727 336.3L13.3932 335.975Z" fill="white"/>
<path d="M49.4129 378.132C45.6584 376.796 40.8209 376.642 37.4184 378.935C37.2921 379.025 37.4184 379.206 37.5448 379.188C41.4249 378.586 45.3575 378.396 49.2775 378.619C49.3422 378.637 49.4113 378.628 49.4697 378.595C49.5281 378.562 49.5709 378.508 49.5889 378.443C49.6069 378.378 49.5984 378.309 49.5654 378.251C49.5324 378.192 49.4775 378.15 49.4129 378.132Z" fill="#123033"/>
<path d="M51.9489 380.262C48.1854 378.926 43.3479 378.772 39.9545 381.065C39.8191 381.155 39.9544 381.336 40.0808 381.318C43.9608 380.716 47.8935 380.525 51.8135 380.749C51.8782 380.767 51.9473 380.758 52.0057 380.725C52.0641 380.692 52.107 380.638 52.1249 380.573C52.1429 380.508 52.1344 380.439 52.1014 380.381C52.0684 380.322 52.0136 380.28 51.9489 380.262Z" fill="#123033"/>
<path d="M54.4761 382.392C50.7126 381.056 45.8841 380.902 42.4816 383.195C42.3462 383.285 42.4816 383.466 42.608 383.447C46.4871 382.837 50.4207 382.647 54.3407 382.879C54.4053 382.897 54.4744 382.888 54.5328 382.855C54.5912 382.822 54.6341 382.768 54.6521 382.703C54.67 382.638 54.6616 382.569 54.6286 382.511C54.5955 382.452 54.5407 382.409 54.4761 382.392Z" fill="#123033"/>
<path d="M59.3226 397.238C57.2558 397.924 12.8519 397.13 10.5866 395.677C9.68409 395.135 9.30504 386.516 9.08843 376.083V375.749L47.283 375.686V376.336C47.283 376.336 55.0808 386.913 57.3732 388.772C59.6656 390.632 61.3984 396.57 59.3226 397.238Z" fill="#37474F"/>
<path d="M9.10651 375.749V376.083C9.32312 386.516 9.73828 395.144 10.6047 395.677C11.6155 396.335 24.4493 396.805 38.303 397.067C54.8913 397.373 58.1584 397.617 59.3226 397.247C61.3894 396.57 59.6114 390.614 57.3461 388.763C55.0808 386.913 47.256 376.327 47.256 376.327V375.677H34.5214L9.10651 375.749Z" fill="#455A64"/>
<path d="M58.6816 394.946C48.7539 394.603 23.2217 393.944 13.3391 394.368C13.2579 394.368 13.2579 394.422 13.3391 394.431C23.2127 394.982 48.6998 395.334 58.6816 395.108C58.8892 395.099 58.8892 394.946 58.6816 394.946Z" fill="#123033"/>
<path opacity="0.1" d="M34.5574 375.686C35.5953 382.058 37.1747 391.453 38.3119 397.048C54.9002 397.355 58.1673 397.599 59.3316 397.229C61.3983 396.552 59.6204 390.595 57.3551 388.745C55.0897 386.895 47.2649 376.309 47.2649 376.309V375.659L34.5574 375.686Z" fill="black"/>
<path d="M6.46206 376.462L49.3046 376.146C49.3046 376.146 53.384 301.878 55.6222 278.746C58.3839 249.812 61.9399 177.601 61.9399 177.601H25.424C25.424 177.601 17.1298 195.29 22.3644 214.956L17.0486 285.957L6.46206 376.462Z" fill="#123033"/>
<path d="M10.0901 368.908C11.2179 368.741 12.3536 368.632 13.4926 368.583C14.7562 368.475 16.0197 368.357 17.2832 368.285C19.72 368.141 22.1478 368.06 24.5846 368.005C29.5033 367.906 34.413 367.861 39.3317 367.933C42.1205 367.933 44.9183 368.033 47.7161 368.15C47.7342 368.156 47.7499 368.167 47.7611 368.183C47.7722 368.198 47.7782 368.217 47.7782 368.236C47.7782 368.255 47.7722 368.273 47.7611 368.289C47.7499 368.304 47.7342 368.315 47.7161 368.321C42.8516 368.583 37.978 368.736 33.1044 368.917C28.2308 369.097 23.3662 369.269 18.5016 369.26C17.1027 369.26 15.7038 369.26 14.3139 369.206C12.9241 369.152 11.489 369.251 10.1172 369.079C10.027 369.061 9.99087 368.935 10.0901 368.908Z" fill="#37474F"/>
<path d="M46.9491 330.849C47.9779 319.73 48.8804 308.602 49.7469 297.456C51.4737 275.193 52.7823 252.898 53.6728 230.57C54.1782 218.043 54.5753 205.516 54.8371 192.989C54.8371 192.845 55.0356 192.863 55.0356 192.989C54.9634 215.435 54.2053 237.898 53.0591 260.326C51.9129 282.753 50.3516 304.919 48.1584 327.112C46.94 339.594 45.5863 352.067 43.8534 364.477C43.8577 364.489 43.859 364.502 43.8571 364.515C43.8553 364.528 43.8504 364.54 43.8429 364.55C43.8354 364.561 43.8255 364.569 43.814 364.575C43.8024 364.581 43.7897 364.584 43.7767 364.584C43.7637 364.584 43.751 364.581 43.7395 364.575C43.7279 364.569 43.718 364.561 43.7105 364.55C43.703 364.54 43.6981 364.528 43.6963 364.515C43.6945 364.502 43.6957 364.489 43.7 364.477C44.792 353.303 45.9202 342.085 46.9491 330.849Z" fill="#37474F"/>
<path d="M66.2989 341.697C66.2989 341.697 67.2736 380.388 67.2736 380.415C67.418 387.807 67.6798 394.296 68.1761 397.635C68.1719 397.653 68.1719 397.672 68.1761 397.689C68.194 398.482 68.3948 399.261 68.7628 399.964V400.009C70.992 401.462 130.134 402.003 132.228 401.326C134.322 400.65 132.535 394.702 130.251 392.843C127.968 390.984 105.405 380.65 105.405 380.65L104.069 341.995L66.2989 341.697Z" fill="white"/>
<path d="M67.0752 372.473C67.0752 372.473 67.2738 380.388 67.2738 380.415C67.4182 387.807 67.6799 394.296 68.1763 397.635C68.1721 397.653 68.1721 397.671 68.1763 397.689C68.2826 398.468 68.4795 399.231 68.7629 399.964V400.009C70.9922 401.462 130.134 402.003 132.228 401.326C134.322 400.65 132.535 394.702 130.252 392.843C127.968 390.984 105.405 380.65 105.405 380.65L105.315 372.59L67.0752 372.473Z" fill="#DAEAEB"/>
<path d="M109.042 380.614C105.089 380.036 100.315 380.821 97.4268 383.727C97.3185 383.836 97.481 383.998 97.6073 383.953C101.305 382.593 105.139 381.637 109.042 381.101C109.096 381.086 109.143 381.055 109.176 381.01C109.21 380.966 109.228 380.913 109.228 380.857C109.228 380.802 109.21 380.748 109.176 380.704C109.143 380.66 109.096 380.628 109.042 380.614Z" fill="#123033"/>
<path d="M111.939 382.211C107.986 381.633 103.212 382.419 100.324 385.325C100.216 385.433 100.378 385.595 100.496 385.55C104.197 384.194 108.034 383.241 111.939 382.707C111.997 382.696 112.049 382.666 112.087 382.62C112.124 382.575 112.145 382.518 112.145 382.459C112.145 382.4 112.124 382.344 112.087 382.298C112.049 382.253 111.997 382.222 111.939 382.211Z" fill="#123033"/>
<path d="M114.836 383.809C110.883 383.231 106.109 384.016 103.221 386.922C103.104 387.031 103.221 387.193 103.392 387.148C107.094 385.792 110.931 384.839 114.836 384.305C114.894 384.294 114.946 384.263 114.984 384.218C115.021 384.172 115.041 384.115 115.041 384.057C115.041 383.998 115.021 383.941 114.984 383.896C114.946 383.85 114.894 383.82 114.836 383.809Z" fill="#123033"/>
<path d="M132.237 401.326C130.161 402.003 71.0101 401.462 68.7718 400.009C67.9144 399.476 67.4902 390.848 67.2736 380.415V380.081L105.441 380.009V380.659C105.441 380.659 127.968 391.029 130.26 392.834C132.553 394.639 134.313 400.659 132.237 401.326Z" fill="#455A64"/>
<path d="M131.587 399.025C121.659 398.691 81.371 398.276 71.4975 398.7C71.4162 398.7 71.4162 398.754 71.4975 398.763C81.371 399.314 121.614 399.404 131.587 399.187C131.795 399.151 131.804 399.034 131.587 399.025Z" fill="#123033"/>
<path d="M44.6745 218.251C44.6745 218.251 57.2466 273.304 57.734 283.448C58.1491 292.113 64.4397 381.101 64.4397 381.101L108.88 380.614C108.88 380.614 97.7065 289.947 96.8582 280.921C95.2787 264.044 85.6037 217.917 74.2952 176.78L26.3895 177.583C26.3895 177.583 27.1657 199.243 37.2739 214.695C37.301 214.704 41.7865 216.689 44.6745 218.251Z" fill="#123033"/>
<path d="M66.6601 372.87C71.7954 372.635 77.1113 372.392 82.2556 372.437C87.4 372.482 92.4541 372.437 97.5443 372.681C100.432 372.807 103.311 372.852 106.199 373.096C106.29 373.096 106.29 373.24 106.199 373.249C101.082 373.628 95.9288 373.655 90.7844 373.7C85.6401 373.745 80.595 373.764 75.4958 373.619C72.6077 373.538 69.7287 373.439 66.8406 373.285C66.5247 373.267 66.3532 372.879 66.6601 372.87Z" fill="#37474F"/>
<path d="M55.6763 219.135C53.4645 219.153 51.255 218.99 49.0698 218.648C46.9009 218.201 44.7561 217.643 42.6439 216.978C40.5591 216.545 38.449 216.243 36.3263 216.075C34.1931 215.802 32.1107 215.222 30.144 214.352C30.1274 214.349 30.1103 214.352 30.0952 214.359C30.0801 214.367 30.0677 214.379 30.0598 214.394C30.0519 214.409 30.0488 214.426 30.0509 214.442C30.0531 214.459 30.0604 214.475 30.0718 214.487C31.9766 215.469 33.96 216.29 36.0014 216.942C38.1223 217.574 40.3244 217.628 42.4724 218.115C44.655 218.73 46.8734 219.209 49.115 219.55C51.3109 219.782 53.5284 219.706 55.7033 219.325C55.7936 219.261 55.7575 219.135 55.6763 219.135Z" fill="#37474F"/>
<path d="M55.189 266.761C54.8731 264.956 54.5753 263.196 54.2324 261.427C53.5464 257.817 52.8425 254.252 52.0483 250.696C50.4779 243.62 49.0158 236.508 47.3281 229.46C46.3714 225.471 45.5231 221.427 44.3678 217.501C44.3678 217.402 44.2144 217.438 44.2234 217.501C44.7108 221.112 45.505 224.722 46.1819 228.332C46.8588 231.942 47.6079 235.489 48.3479 239.063C49.8371 246.165 51.2721 253.277 52.9327 260.335C53.402 262.311 53.8352 264.279 54.3948 266.246C54.9544 268.214 55.2973 270.317 55.9562 272.275C55.9562 272.297 55.9647 272.318 55.98 272.333C55.9952 272.348 56.0159 272.357 56.0374 272.357C56.0589 272.357 56.0796 272.348 56.0948 272.333C56.1101 272.318 56.1186 272.297 56.1186 272.275C55.9291 270.389 55.5139 268.575 55.189 266.761Z" fill="#37474F"/>
<path d="M73.149 201.04L77.6616 221.653L82.0749 242.294C83.546 249.171 84.954 256.066 86.3709 262.961L88.4377 273.313C88.7716 275.037 89.1236 276.788 89.3402 278.548L89.8997 283.8C91.2716 297.808 92.5832 311.818 93.8347 325.831L95.6398 346.859L97.3636 367.897L95.1975 346.905L93.1037 325.894L89.0153 283.891L88.4738 278.647C88.3023 276.905 87.9593 275.208 87.6434 273.476L85.6128 263.124L81.4431 242.438L77.2825 221.743L73.149 201.04Z" fill="#37474F"/>
<path d="M51.2506 104.621L63.0104 109.209C61.9898 111.552 61.2562 114.009 60.8256 116.528L60.8255 116.528L60.8251 116.532C60.7983 116.804 60.7981 117.077 60.8247 117.349C60.8204 117.395 60.8204 117.441 60.8249 117.487C60.8286 117.866 60.6539 118.47 60.3394 119.173C60.0252 119.876 59.5745 120.67 59.0337 121.425C58.4929 122.18 57.863 122.894 57.1908 123.437C56.5182 123.98 55.8069 124.349 55.1028 124.42C53.6453 124.562 52.1576 123.515 50.9805 121.942C49.806 120.372 48.9526 118.293 48.759 116.399C48.7595 116.368 48.7683 116.304 48.7864 116.204C48.8047 116.103 48.8318 115.971 48.8666 115.81C48.9363 115.487 49.0369 115.051 49.1604 114.525C49.2746 114.04 49.4078 113.482 49.554 112.868C49.7251 112.15 49.9141 111.358 50.1115 110.519L50.1115 110.519C50.54 108.653 51.0044 106.556 51.2506 104.621Z" fill="white" stroke="black" stroke-width="0.1"/>
<path d="M50.9809 109.668L50.9807 109.667C50.0622 108.841 49.2393 107.405 48.5475 105.628C47.8563 103.853 47.298 101.743 46.9058 99.5729C46.121 95.2305 46.0033 90.66 46.8074 88.059C47.9966 84.2222 51.3544 81.7927 55.1815 80.8829C59.009 79.973 63.2959 80.5858 66.3325 82.8227C67.356 83.5831 68.3068 85.1813 69.0928 87.2594C69.878 89.3351 70.4957 91.8812 70.858 94.5277C71.2203 97.1741 71.3269 99.9192 71.0909 102.393C70.8547 104.867 70.2761 107.065 69.2715 108.622L69.2714 108.622C67.1966 111.842 63.9752 113.326 60.5964 113.394C57.2164 113.463 53.6795 112.114 50.9809 109.668Z" fill="white" stroke="black" stroke-width="0.1"/>
<path d="M47.4995 85.3998C47.4995 85.3998 44.4941 88.6218 44.1241 90.4991C43.7541 92.3763 44.1241 99.5784 47.1927 104.172C48.3208 105.833 48.2576 109.308 50.1078 110.49C51.958 111.672 60.3694 106.817 60.938 105.382C61.5066 103.947 60.0355 99.2625 59.7196 97.3131C59.4037 95.3636 61.6781 94.9756 62.2918 95.3005C66.1365 97.3582 66.5878 102.466 66.9488 101.618C67.3098 100.77 68.5101 98.1434 68.5824 96.2662C68.6546 94.3889 65.3243 88.7211 65.4687 87.241C65.6131 85.7608 67.725 86.7807 69.0787 86.546C69.9181 86.4016 69.7105 81.3475 68.5643 80.454C67.4181 79.5605 64.9542 80.0118 63.8983 79.9396C62.8423 79.8674 61.5698 78.5136 58.7539 78.4414C55.9381 78.3692 52.5807 79.9215 51.2179 80.454C49.0519 81.2753 47.4995 85.3998 47.4995 85.3998Z" fill="#123033"/>
<path d="M65.4995 99.0247L65.5028 99.0296L66.292 102.994C66.1638 103.295 65.9766 103.569 65.7415 103.797C65.5028 104.03 65.2195 104.211 64.9087 104.331C64.598 104.451 64.2662 104.506 63.9333 104.495C63.6004 104.483 63.2734 104.404 62.9719 104.262L62.972 104.262L62.9686 104.261C62.3623 104.027 61.7575 103.434 61.2237 102.65C60.6908 101.867 60.233 100.899 59.9184 99.9251C59.6037 98.9511 59.4333 97.9745 59.4724 97.1735C59.5116 96.3701 59.7602 95.7584 60.2666 95.489C60.7773 95.2174 61.3561 95.2933 61.9457 95.5712C62.5354 95.8491 63.1278 96.3256 63.657 96.8401C64.1856 97.3542 64.6486 97.9037 64.9796 98.325C65.1451 98.5356 65.2774 98.714 65.3683 98.8397C65.4138 98.9025 65.4489 98.9521 65.4726 98.986L65.4995 99.0247Z" fill="white" stroke="black" stroke-width="0.1"/>
<path d="M60.938 97.3762C60.938 97.3762 60.8839 97.4214 60.938 97.4394C62.6709 98.1704 63.5553 99.795 64.1781 101.474C64.0802 101.298 63.9453 101.145 63.7826 101.027C63.62 100.908 63.4335 100.826 63.2361 100.786C63.0387 100.747 62.8351 100.751 62.6393 100.798C62.4435 100.845 62.2603 100.934 62.1023 101.059C62.0926 101.063 62.0844 101.07 62.0786 101.078C62.0728 101.087 62.0698 101.098 62.0698 101.108C62.0698 101.119 62.0728 101.129 62.0786 101.138C62.0844 101.147 62.0926 101.154 62.1023 101.158C62.4082 101.064 62.7359 101.067 63.0399 101.167C63.3439 101.267 63.6092 101.46 63.799 101.717C64.134 102.153 64.4186 102.625 64.6474 103.125C64.7286 103.288 65.0084 103.206 64.9542 103.026V102.981C64.9903 100.752 63.3117 97.6289 60.938 97.3762Z" fill="#123033"/>
<path d="M15.1442 199.379C15.1893 199.433 28.2307 203.63 32.8155 203.63C33.5195 203.63 35.8119 195.182 36.2992 195.236C36.7866 195.29 37.9418 204.072 38.5736 204.063C52.8063 204.063 82.6255 199.884 82.9504 199.55C83.2753 199.216 78.3746 180.949 77.9595 178.531C74.8368 160.309 70.0624 127.448 63.1582 118.405C59.9723 114.235 50.911 112.376 47.9507 114.407C40.2613 119.677 36.94 125.742 34.1242 132.322C32.0393 137.195 23.2217 170.643 22.0124 175.832C20.4961 182.357 14.8825 199.054 15.1442 199.379Z" fill="#127F87"/>
<path d="M56.8 167.17L56.8 167.17C56.5119 165.059 56.4259 160.257 56.6978 153.444C56.9696 146.632 57.599 137.814 58.7406 127.67C59.0312 125.097 59.6289 123.165 60.4148 121.907C61.2004 120.649 62.1682 120.072 63.2025 120.186C64.2415 120.301 65.3676 121.114 66.4628 122.684C67.5569 124.253 68.6143 126.569 69.5182 129.673C71.3271 135.885 72.9196 143.387 74.173 149.648C74.4914 151.238 74.788 152.749 75.0607 154.137C75.3246 155.481 75.566 156.711 75.783 157.788C76.2242 159.977 76.5662 161.544 76.7935 162.167L76.7937 162.168C76.9294 162.53 87.2636 187.945 91.5596 198.126L91.6057 198.106L91.5596 198.126C91.6311 198.295 91.6091 198.463 91.4979 198.635C91.3852 198.809 91.1813 198.985 90.8927 199.161C90.3161 199.512 89.4185 199.85 88.2963 200.166C86.0533 200.797 82.9279 201.33 79.7185 201.686C76.5094 202.042 73.2188 202.219 70.6457 202.139C69.3589 202.099 68.2535 201.995 67.4281 201.816C67.0154 201.727 66.6746 201.62 66.4168 201.494C66.1581 201.368 65.9891 201.226 65.9105 201.071L65.9104 201.071C64.8527 199.009 62.9428 193.243 61.1127 186.633C59.2831 180.025 57.5351 172.582 56.8 167.17Z" fill="white" stroke="black" stroke-width="0.1"/>
<path d="M86.8899 237.948C86.8482 238.048 86.8009 238.158 86.7481 238.275C86.5049 238.817 86.1461 239.517 85.6829 240.155C85.2193 240.793 84.6542 241.364 84 241.653C83.349 241.94 82.6057 241.951 81.7756 241.46C80.9481 240.971 80.5544 240.192 80.4307 239.291C80.3067 238.389 80.4545 237.368 80.7087 236.404C80.7659 236.187 80.8285 235.973 80.8945 235.765C81.3078 235.098 81.6188 234.365 81.8278 233.794C81.9352 233.5 82.0159 233.249 82.0696 233.071C82.0965 232.982 82.1167 232.912 82.1302 232.863C82.1322 232.856 82.134 232.85 82.1357 232.843C82.1398 232.829 82.143 232.817 82.1454 232.808L82.1492 232.793L82.1502 232.79L82.1504 232.789L82.1505 232.788C82.1505 232.788 82.1505 232.788 82.1021 232.776M86.8899 237.948L88.4948 243.575C88.9846 243.69 89.4837 243.542 89.9869 243.174C90.4908 242.807 90.9944 242.223 91.4885 241.478C92.4764 239.99 93.4188 237.871 94.2469 235.591C95.9033 231.033 97.0977 225.848 97.2868 223.818C97.4734 221.797 97.2083 219.179 96.7042 216.387C96.2001 213.596 95.4578 210.633 94.6919 207.924C93.926 205.215 93.1367 202.759 92.5388 200.98C92.2399 200.091 91.9888 199.371 91.8125 198.873C91.7244 198.624 91.6549 198.431 91.6075 198.3L91.5533 198.151L91.5472 198.135L91.5106 198.136L91.2982 198.143C91.1122 198.15 90.8393 198.16 90.492 198.173C89.7974 198.199 88.8051 198.237 87.614 198.286C85.2319 198.385 82.0552 198.527 78.8765 198.702C75.6977 198.876 72.5176 199.084 70.1285 199.313C68.9338 199.428 67.938 199.548 67.2395 199.671C66.8899 199.733 66.6167 199.796 66.4308 199.859C66.3376 199.89 66.2691 199.921 66.2243 199.95C66.1768 199.98 66.1689 200.001 66.1684 200.008L66.1683 200.01L66.1683 200.01C65.8573 203.183 65.9706 205.715 67.0031 208.283C68.0361 210.853 69.9912 213.464 73.3737 216.793L73.3949 216.813L73.3867 216.842L73.3386 216.828C73.3867 216.842 73.3867 216.842 73.3867 216.842L73.3866 216.843L73.3861 216.844L73.3841 216.851L73.3762 216.879C73.3693 216.904 73.3591 216.94 73.346 216.988C73.3197 217.083 73.2815 217.223 73.2343 217.402C73.1398 217.76 73.0087 218.274 72.8628 218.897C72.5708 220.144 72.2192 221.829 71.9803 223.578C71.7413 225.328 71.6156 227.14 71.774 228.645C71.9329 230.154 72.3755 231.335 73.2555 231.848L73.2559 231.848C73.6556 232.086 74.0177 232.181 74.3455 232.168C74.6732 232.156 74.9708 232.037 75.2413 231.839C75.5754 231.595 75.8667 231.232 76.1187 230.807C76.3689 229.703 76.6974 228.669 76.9679 227.901C77.1095 227.499 77.2353 227.17 77.3257 226.941C77.3709 226.826 77.4072 226.737 77.4323 226.676C77.4449 226.646 77.4546 226.622 77.4612 226.607L77.4687 226.589L77.4706 226.584L77.4711 226.583L77.4712 226.583C77.4713 226.583 77.4713 226.583 77.5173 226.602M86.8899 237.948C86.9402 237.802 86.9863 237.679 87.0238 237.583C87.0528 237.509 87.0766 237.45 87.0933 237.411C87.1016 237.391 87.1081 237.375 87.1125 237.365L87.1176 237.353L87.119 237.35L87.1193 237.35L87.1194 237.349L87.1652 237.37L87.1195 237.349L87.2127 237.385L87.2107 237.385C87.2127 237.385 87.2127 237.385 87.2127 237.385L87.2126 237.386L87.2123 237.387L87.2111 237.39L87.2066 237.403C87.2026 237.415 87.1966 237.432 87.1886 237.455C87.1728 237.499 87.1491 237.565 87.1177 237.647C87.0826 237.739 87.0377 237.853 86.9835 237.983C86.9565 238.061 86.9284 238.145 86.8997 238.235C86.7354 238.749 86.5552 239.442 86.4896 240.163C86.424 240.884 86.4738 241.627 86.765 242.245C87.0549 242.859 87.586 243.353 88.4943 243.575L86.8899 237.948ZM82.1021 232.776L82.1505 232.788L82.0583 232.751L82.1021 232.776ZM82.1021 232.776C82.0583 232.751 82.0583 232.751 82.0582 232.752L82.0581 232.752L82.0576 232.753L82.0555 232.757L82.0475 232.771C82.0452 232.775 82.0426 232.78 82.0396 232.786C82.0334 232.797 82.0258 232.811 82.0168 232.828C81.9902 232.878 81.9517 232.952 81.9039 233.046C81.8082 233.235 81.6755 233.506 81.5267 233.838C81.2977 234.35 81.0305 235.005 80.8029 235.723C80.7939 235.737 80.785 235.751 80.7759 235.766C80.3503 236.439 79.8229 237.029 79.1962 237.299C78.5743 237.567 77.846 237.523 77.0051 236.914L77.0051 236.914C76.28 236.389 75.9455 235.491 75.8576 234.427C75.7698 233.363 75.9291 232.141 76.1819 230.984C76.1921 230.937 76.2024 230.891 76.2129 230.844C76.3705 230.577 76.5119 230.288 76.6383 229.991C76.9727 229.205 77.2047 228.36 77.3531 227.712C77.4274 227.387 77.4808 227.112 77.5156 226.918C77.533 226.821 77.5458 226.744 77.5543 226.691C77.5585 226.665 77.5616 226.644 77.5637 226.631L77.566 226.615L77.5666 226.611L77.5668 226.61L77.5668 226.61C77.5668 226.61 77.5668 226.61 77.5173 226.602M77.5173 226.602L77.5668 226.61L77.4713 226.583L77.5173 226.602ZM76.5462 229.952C76.4688 230.133 76.3861 230.311 76.2979 230.482C76.534 229.515 76.8212 228.619 77.0623 227.935C77.1883 227.577 77.3017 227.277 77.3886 227.054C77.3555 227.229 77.3115 227.445 77.2556 227.689C77.1078 228.335 76.8773 229.174 76.5462 229.952ZM81.7338 233.759C81.5695 234.208 81.3424 234.756 81.0527 235.292C81.2396 234.76 81.4403 234.276 81.6181 233.879C81.7222 233.647 81.8185 233.444 81.8995 233.279C81.8542 233.419 81.799 233.581 81.7338 233.759Z" fill="white" stroke="black" stroke-width="0.1"/>
<path d="M81.344 234.541C81.6238 233.999 81.8855 233.458 82.1563 232.916C82.7029 231.872 83.188 230.796 83.6093 229.694C84.0065 228.611 84.3494 227.519 84.6563 226.418C84.9631 225.317 85.1978 224.036 85.5588 222.88C85.5628 222.87 85.5642 222.858 85.5627 222.846C85.5613 222.835 85.557 222.824 85.5504 222.814C85.5437 222.805 85.5349 222.797 85.5245 222.791C85.5142 222.786 85.5027 222.783 85.4911 222.783C85.4795 222.783 85.468 222.786 85.4577 222.791C85.4473 222.797 85.4385 222.805 85.4318 222.814C85.4252 222.824 85.4209 222.835 85.4195 222.846C85.418 222.858 85.4194 222.87 85.4234 222.88C85.0793 224.03 84.6725 225.16 84.205 226.265C83.7808 227.357 83.3476 228.449 82.9144 229.541C82.4812 230.633 82.1382 231.698 81.7411 232.772C81.5426 233.314 81.317 233.846 81.1003 234.37C80.8569 234.859 80.6576 235.37 80.5047 235.895C80.5047 235.94 80.5588 235.967 80.5949 235.895C80.89 235.47 81.141 235.017 81.344 234.541Z" fill="#123033"/>
<path d="M86.714 238.503C87.7961 236.6 88.746 234.625 89.557 232.592C90.3402 230.548 90.9176 228.432 91.2808 226.274C91.2808 226.257 91.2741 226.241 91.2623 226.229C91.2504 226.217 91.2344 226.211 91.2176 226.211C91.2009 226.211 91.1848 226.217 91.1729 226.229C91.1611 226.241 91.1544 226.257 91.1544 226.274C90.3602 228.314 89.6021 230.38 88.844 232.438C88.4649 233.449 86.6418 237.971 86.5065 238.467C86.4704 238.503 86.6509 238.557 86.714 238.503Z" fill="#123033"/>
<path d="M76.2087 230.985C77.1856 229.175 78.0418 227.303 78.7719 225.38C79.3319 223.35 79.7391 221.28 79.9903 219.189C79.9903 219.117 79.882 219.081 79.8639 219.189C79.2953 221.211 78.7628 223.241 78.0589 225.227C77.734 226.202 76.2538 230.001 75.9921 230.958C76.0282 231.003 76.1546 231.057 76.2087 230.985Z" fill="#123033"/>
<path d="M62.9687 200.706L91.1634 192.204C91.1634 192.204 78.5281 163.684 77.2827 161.284C76.0372 158.883 73.0859 136.916 69.0788 126.771C65.0716 116.627 59.6294 114.912 57.8153 128.486C56.0013 142.06 55.8298 160.715 56.0735 166.762C56.3171 172.809 62.9687 200.706 62.9687 200.706Z" fill="#127F87"/>
<path d="M87.2554 186.708C86.1905 186.852 85.1526 187.204 84.0966 187.457C83.0407 187.709 82.0118 187.989 80.9739 188.287C78.9703 188.846 76.9758 189.442 74.9902 190.047L69.0246 191.852C66.9668 192.484 64.8459 193.034 62.8423 193.828C62.8232 193.828 62.8048 193.836 62.7913 193.85C62.7777 193.863 62.7701 193.881 62.7701 193.901C62.7701 193.92 62.7777 193.938 62.7913 193.952C62.8048 193.965 62.8232 193.973 62.8423 193.973C64.9452 193.567 67.03 192.881 69.0968 192.303L75.2158 190.597C77.2555 190.02 79.2952 189.433 81.3259 188.792C82.3187 188.485 83.3114 188.179 84.2952 187.836C85.3023 187.538 86.2934 187.189 87.2645 186.789C87.3908 186.798 87.3276 186.698 87.2554 186.708Z" fill="#123033"/>
<path d="M65.3603 199.984L62.9867 200.787H62.9054V200.706C61.4975 195.191 60.1979 189.641 58.9524 184.09L57.1474 175.724C56.5878 172.926 56.0012 170.146 55.6401 167.285C55.4104 164.427 55.3471 161.559 55.4506 158.693C55.5048 155.841 55.6492 152.998 55.8207 150.156C56.1726 144.47 56.6329 138.793 57.2466 133.125C56.9578 138.811 56.6871 144.497 56.4705 150.183C56.2539 155.868 55.9741 161.59 56.4705 167.177C57.3188 172.764 58.4831 178.359 59.6203 183.928L62.9776 200.669L62.8783 200.615L65.3603 199.984Z" fill="#123033"/>
<path d="M56.1908 134.768L56.3442 136.013L56.5247 137.231C56.642 138.053 56.7955 138.865 56.8587 139.713C56.4713 138.957 56.2092 138.144 56.0825 137.304C55.9376 136.46 55.9746 135.596 56.1908 134.768Z" fill="#123033"/>
<path d="M90.5808 197.583C92.0192 197.583 91.5818 199.084 90.5808 198.584C89.5799 198.083 66.8504 200.295 66.059 201.086C65.9214 201.224 66.059 200.586 66.059 200.085C66.059 198.584 90.0804 197.583 90.5808 197.583Z" fill="white"/>
<path d="M126.993 67.9271C126.564 72.0498 124.997 75.9719 122.467 79.2557C119.938 82.5395 116.546 85.0558 112.669 86.5236C108.793 87.9914 104.585 88.3531 100.515 87.5681C96.4445 86.7832 92.6727 84.8827 89.6201 82.0786L78.4289 83.7212L84.0335 74.0462C82.634 70.6408 82.1066 66.9399 82.4992 63.2791C82.8044 60.3576 83.6821 57.5248 85.082 54.9424C86.482 52.3601 88.3769 50.0788 90.6585 48.2287C92.9402 46.3787 95.5639 44.9962 98.3798 44.1601C101.196 43.3241 104.149 43.0508 107.07 43.356C109.992 43.6612 112.825 44.5389 115.407 45.9388C117.989 47.3388 120.271 49.2337 122.121 51.5154C123.971 53.797 125.353 56.4207 126.189 59.2366C127.025 62.0525 127.299 65.0056 126.993 67.9271Z" fill="#DAEAEB"/>
<path d="M126.993 67.9271C126.564 72.0525 125.003 75.9788 122.481 79.2717C121.248 80.9312 119.769 82.3922 118.094 83.6038C116.44 84.8564 114.617 85.8682 112.679 86.6092C110.749 87.3652 108.723 87.8482 106.659 88.0442C105.624 88.1389 104.584 88.157 103.546 88.0983C102.507 88.0785 101.472 87.9729 100.45 87.7825C96.3252 87.0232 92.4936 85.1293 89.3853 82.3132L89.647 82.3944L78.4738 84.1182L77.6616 84.2356L78.0677 83.5226L83.6362 73.8295V74.2086C82.3239 71.0017 81.7658 67.5362 82.0053 64.0795C82.2447 60.6228 83.2751 57.2673 85.0171 54.272C86.7586 51.2899 89.153 48.7412 92.0206 46.8171C94.8862 44.9201 98.1438 43.696 101.549 43.2365C104.955 42.777 108.421 43.094 111.687 44.1637C114.919 45.2655 117.866 47.072 120.315 49.4525C122.752 51.8265 124.62 54.7224 125.777 57.9224C126.933 61.1224 127.349 64.5431 126.993 67.9271ZM126.993 67.9271C127.357 64.5573 126.942 61.1491 125.78 57.9652C124.618 54.7814 122.74 51.907 120.291 49.5637C117.842 47.2205 114.888 45.471 111.656 44.4503C108.424 43.4295 105.001 43.1647 101.651 43.6764C98.3348 44.1589 95.1735 45.3938 92.4087 47.2865C89.6774 49.2104 87.3933 51.7008 85.712 54.5878C84.0618 57.4879 83.0927 60.7254 82.8781 64.0552C82.6683 67.3808 83.2049 70.7111 84.4485 73.8024L84.5297 74.001L84.4214 74.1815L78.7897 83.8384L78.3926 83.2518L89.5929 81.6814H89.7463L89.8546 81.7897C92.8435 84.588 96.5533 86.4976 100.567 87.3041C101.569 87.5134 102.586 87.6372 103.609 87.6742C104.628 87.7463 105.65 87.7463 106.669 87.6742C108.712 87.5153 110.723 87.0718 112.643 86.3565C114.58 85.6558 116.404 84.6768 118.058 83.4504C118.882 82.8386 119.668 82.1786 120.414 81.4739C121.141 80.7466 121.822 79.975 122.454 79.1634C124.97 75.9057 126.54 72.0182 126.993 67.9271Z" fill="#123033"/>
<path d="M106.425 68.7754V71.6545C106.432 71.9421 106.381 72.2283 106.275 72.4955C106.168 72.7628 106.008 73.0056 105.804 73.209C105.601 73.4125 105.358 73.5724 105.091 73.6791C104.824 73.7858 104.538 73.837 104.25 73.8295C103.673 73.8295 103.12 73.6004 102.712 73.1925C102.304 72.7846 102.075 72.2313 102.075 71.6545V67.0245C102.075 67.0245 102.12 67.0245 102.12 66.9343C102.12 66.844 102.075 66.9343 102.075 66.844C102.093 66.2738 102.328 65.732 102.732 65.3294C103.137 64.9268 103.68 64.6938 104.25 64.678C104.927 64.7188 105.605 64.6207 106.243 64.3898C106.881 64.1588 107.464 63.7998 107.958 63.3348C108.452 62.8699 108.845 62.3088 109.114 61.6862C109.383 61.0635 109.522 60.3924 109.522 59.7141C109.522 59.0359 109.383 58.3648 109.114 57.7421C108.845 57.1194 108.452 56.5584 107.958 56.0935C107.464 55.6285 106.881 55.2695 106.243 55.0385C105.605 54.8075 104.927 54.7094 104.25 54.7503C103.388 54.7471 102.541 54.9705 101.794 55.3982C101.046 55.826 100.424 56.4429 99.99 57.1871C99.8469 57.4399 99.6548 57.6617 99.425 57.8393C99.1951 58.017 98.9322 58.1471 98.6515 58.2219C98.3708 58.2967 98.0779 58.3147 97.7902 58.275C97.5024 58.2352 97.2255 58.1384 96.9755 57.9903C96.7306 57.8453 96.5167 57.6533 96.3463 57.4252C96.1759 57.1972 96.0523 56.9377 95.9826 56.6617C95.913 56.3857 95.8987 56.0986 95.9405 55.817C95.9824 55.5354 96.0796 55.2649 96.2265 55.021C97.0002 53.6835 98.0944 52.5593 99.4104 51.7495C100.726 50.9396 102.223 50.4696 103.766 50.3817C105.309 50.2938 106.849 50.5907 108.249 51.2458C109.648 51.9008 110.863 52.8935 111.784 54.1344C112.704 55.3754 113.302 56.8258 113.523 58.3551C113.745 59.8844 113.582 61.4447 113.051 62.8957C112.519 64.3467 111.636 65.6429 110.479 66.6676C109.322 67.6924 107.929 68.4136 106.425 68.7664V68.7754ZM106.425 78.4865V79.2807C106.432 79.5684 106.381 79.8546 106.275 80.1218C106.168 80.3891 106.008 80.6318 105.804 80.8353C105.601 81.0388 105.358 81.1987 105.091 81.3054C104.824 81.4121 104.538 81.4632 104.25 81.4558C103.673 81.4558 103.12 81.2266 102.712 80.8187C102.304 80.4108 102.075 79.8576 102.075 79.2807V78.4865C102.082 77.9118 102.313 77.3627 102.72 76.9563C103.126 76.5499 103.675 76.3185 104.25 76.3114C104.536 76.3078 104.821 76.3616 105.086 76.4696C105.352 76.5776 105.593 76.7377 105.796 76.9404C105.999 77.1431 106.159 77.3843 106.267 77.6499C106.375 77.9154 106.429 78.1999 106.425 78.4865Z" fill="#127F87"/>
<path d="M217.85 291.445H242.218C242.218 291.445 241.415 288.006 239.79 287.763C239.305 287.718 238.818 287.824 238.394 288.066C237.971 288.309 237.633 288.675 237.426 289.116C237.426 289.116 237.498 284.324 234.475 283.503C231.451 282.681 228.924 286.923 228.924 286.923C228.924 286.923 227.029 284.513 224.411 284.667C221.794 284.82 221.18 288.809 221.18 288.809C221.18 288.809 218.888 287.42 217.85 291.445Z" fill="#455A64"/>
<path d="M200.522 385.803H252.055C252.055 385.803 251.938 378.132 246.866 376.092C245.497 375.506 243.975 375.378 242.527 375.728C241.08 376.078 239.784 376.886 238.834 378.032C238.834 378.032 236.722 363.953 227.281 363.953C217.841 363.953 213.328 376.119 213.328 376.119C213.328 376.119 211.208 372.446 205.973 373.132C200.738 373.818 200.522 385.803 200.522 385.803Z" fill="#455A64"/>
<path d="M225.783 388.61H279.727C279.727 388.61 277.922 381.002 274.375 380.487C270.828 379.973 269.131 383.475 269.131 383.475C269.131 383.475 269.294 372.861 262.615 371.056C255.936 369.251 250.332 378.619 250.332 378.619C250.332 378.619 246.144 373.276 240.404 373.619C234.664 373.962 233.247 382.789 233.247 382.789C233.247 382.789 228.085 379.711 225.783 388.61Z" fill="#37474F"/>
<path d="M378.986 321.887H342.262C342.262 321.887 342.343 316.418 345.953 314.974C346.933 314.547 348.025 314.451 349.064 314.7C350.102 314.95 351.032 315.53 351.712 316.354C351.712 316.354 353.183 306.3 359.915 306.3C366.648 306.3 369.843 314.974 369.843 314.974C370.413 314.144 371.213 313.499 372.145 313.119C373.077 312.739 374.099 312.64 375.087 312.835C378.841 313.322 378.986 321.887 378.986 321.887Z" fill="#455A64"/>
<path d="M357.127 329.657C357.127 329.657 355.132 320.38 351.17 318.954C347.208 317.528 344.78 321.661 344.78 321.661C344.78 321.661 343.878 312.798 338.219 310.145C332.56 307.492 328.363 312.925 328.363 312.925C328.363 312.925 324.049 301.679 316.333 301.679C308.616 301.679 304.717 318.186 304.717 318.186C304.717 318.186 300.16 313.286 295.494 316.057C290.828 318.827 290.828 329.685 290.828 329.685L357.127 329.657Z" fill="#37474F"/>
<path d="M213.235 355.165L136.701 355.245L136.75 401.616L213.283 401.536L213.235 355.165Z" fill="#127F87"/>
<path opacity="0.1" d="M213.226 355.165L136.692 355.245L136.715 377.077L213.248 376.996L213.226 355.165Z" fill="black"/>
<path d="M215.023 348.349L134.871 348.433L134.893 370.075L215.046 369.991L215.023 348.349Z" fill="#127F87"/>
<path d="M191.803 336.029L191.821 348.376L186.009 348.385V341.354L163.87 341.381V348.403L158.067 348.412L158.058 336.065L191.803 336.029Z" fill="#123033"/>
<path d="M151.133 364.877L145.908 364.883L145.919 375.217L151.144 375.211L151.133 364.877Z" fill="#123033"/>
<path d="M204.039 364.831L198.813 364.837L198.824 375.17L204.05 375.165L204.039 364.831Z" fill="#123033"/>
</svg>
